<svg width="240" height="230" viewBox="0 0 240 230" fill="none" xmlns="http://www.w3.org/2000/svg">
<rect width="240" height="230" fill="#1E1E1E"/>
<g clipPath="url(#clip0_0_1)">
<rect width="1440" height="1081" transform="translate(-600 -242)" fill="#F6F7F9"/>
<rect x="-190" y="-134" width="620" height="571" rx="20" fill="white"/>
<g clipPath="url(#clip1_0_1)">
<path d="M194.24 107.134L186.615 126.592L215.38 137.947L223.005 118.488L194.24 107.134Z" fill="#EBEBEB"/>
<path d="M222.995 118.741C222.876 118.801 222.753 118.852 222.626 118.894L221.54 119.281L217.561 120.659L204.362 125.122L204.253 125.16L204.193 125.062L204.058 124.817L197.086 112.523L194.991 108.78L194.448 107.755C194.376 107.638 194.316 107.514 194.269 107.385C194.353 107.492 194.429 107.604 194.497 107.723L195.099 108.725L197.271 112.42L204.329 124.681L204.465 124.921L204.302 124.855L217.523 120.496L221.519 119.177L222.604 118.839C222.731 118.792 222.862 118.759 222.995 118.741Z" fill="#E0E0E0"/>
<path d="M186.608 126.85C186.57 126.779 189.779 124.964 193.769 122.795C197.76 120.626 201.034 118.926 201.072 118.981C201.11 119.035 197.901 120.866 193.905 123.035C189.909 125.204 186.64 126.915 186.608 126.85Z" fill="#E0E0E0"/>
<path d="M210.73 122.522C210.801 122.522 211.903 125.994 213.184 130.32C214.466 134.647 215.448 138.178 215.356 138.2C215.264 138.222 214.183 134.729 212.897 130.402C211.61 126.075 210.66 122.544 210.73 122.522Z" fill="#E0E0E0"/>
<path d="M99.1635 189.004L71.5088 202.861L80.814 221.569L108.469 207.712L99.1635 189.004Z" fill="#EBEBEB"/>
<path d="M99.3578 189.189C99.323 189.32 99.2776 189.448 99.2221 189.571C99.1135 189.838 98.9724 190.192 98.7878 190.634L97.1589 194.524L91.6319 207.352L91.583 207.461H91.4744L91.2029 207.407L77.4015 204.35L73.2263 203.407L72.097 203.14C71.9632 203.115 71.8322 203.077 71.7061 203.025C71.8416 203.032 71.9763 203.052 72.1078 203.085L73.2534 203.303L77.4449 204.153L91.2518 207.08L91.5233 207.14L91.3658 207.221L96.9744 194.421L98.6955 190.568C98.8963 190.132 99.0538 189.789 99.1787 189.527C99.2292 189.41 99.2891 189.297 99.3578 189.189Z" fill="#E0E0E0"/>
<path d="M81.0118 221.755C80.9358 221.755 81.7393 218.131 82.8089 213.701C83.8785 209.27 84.8015 205.696 84.8775 205.712C84.9535 205.728 84.1554 209.336 83.0695 213.766C81.9837 218.196 81.0878 221.788 81.0118 221.755Z" fill="#E0E0E0"/>
<path d="M93.9277 200.873C93.9657 200.803 97.2831 202.318 101.35 204.263C105.416 206.208 108.679 207.832 108.647 207.903C108.614 207.974 105.291 206.454 101.225 204.514C97.1582 202.574 93.9277 200.944 93.9277 200.873Z" fill="#E0E0E0"/>
<path d="M53.7507 118.795C64.262 111.755 66.8246 98.431 66.602 86.4207C66.564 84.4153 66.8192 82.3064 65.8853 80.5354C64.9515 78.7643 62.72 77.5273 60.8958 78.3556C59.3864 79.0314 58.724 80.7534 57.839 82.1702C56.681 84.0662 55.0137 85.5961 53.0286 86.5841C51.7255 87.2272 50.1293 87.6086 48.8643 86.8948C47.1377 85.9139 46.9694 83.5271 47.0128 81.5326C47.0925 77.8162 47.1721 74.1015 47.2517 70.3887C47.2952 68.3943 47.3332 66.3617 46.7088 64.4599C46.0844 62.558 44.7597 60.7816 42.854 60.2203C40.9482 59.659 38.5647 60.7216 38.1304 62.6616C37.9458 63.4735 38.1304 64.2964 38.0327 65.1465C37.9349 65.9966 37.5603 66.8794 36.7622 67.0973C35.9641 67.3153 35.1334 66.7431 34.5904 66.1491C32.5436 64.1056 31.1754 61.4954 29.8995 58.8961C28.6236 56.2968 27.3857 53.6429 25.556 51.4196C23.7263 49.1963 21.093 47.4089 18.2155 47.1964C15.3379 46.9838 12.2431 48.7058 11.4667 51.4959C10.6903 54.2859 12.3029 57.1686 14.0674 59.4737C16.6986 62.8932 19.8072 65.9142 23.2973 68.4433C23.9776 68.827 24.5179 69.4189 24.8393 70.1326C25.2519 71.4677 23.9597 72.7701 22.6295 73.1842C21.1256 73.6583 19.4968 73.4785 17.9277 73.6365C16.3586 73.7946 14.6429 74.4594 14.0294 75.9198C13.1716 77.9415 14.8601 80.1049 16.5324 81.5272C19.8809 84.3822 23.6911 86.6418 27.7983 88.208C29.2697 88.753 30.8225 89.2598 32.0006 90.3115C33.1788 91.3632 33.8683 93.1833 33.1191 94.5511C32.3698 95.9188 30.513 96.3711 28.971 96.0605C27.4291 95.7499 26.05 94.8998 24.5787 94.3222C21.8314 93.2323 18.2589 93.3849 16.4346 95.7227C15.2456 97.2648 15.1099 99.4282 15.6691 101.292C16.3226 103.136 17.3443 104.827 18.6715 106.262C22.9883 111.557 28.6249 115.61 35.0085 118.01C41.3935 120.31 47.3278 120.975 53.7507 118.795Z" fill="#EBEBEB"/>
<path d="M50.6943 111.221C48.78 104.649 46.4886 98.1937 43.8316 91.8871C43.1366 90.2087 42.4507 88.5503 41.7739 86.9119C41.0952 85.2771 40.4219 83.6423 39.6618 82.1219C38.1911 79.1627 36.5598 76.2866 34.7754 73.5065C33.0923 70.8418 31.3983 68.3732 29.7967 66.0736C28.195 63.774 26.653 61.6651 25.1654 59.8014C22.8367 56.8408 20.2768 54.0711 17.51 51.5185C16.5327 50.6139 15.7563 49.9381 15.2188 49.4859L14.6596 48.9736L14.4424 48.8047C14.5033 48.8725 14.5686 48.9362 14.6378 48.9954L15.2296 49.5404C15.7726 50.009 16.5164 50.7011 17.4828 51.6165C20.1999 54.1996 22.7207 56.9829 25.0242 59.9431C26.4956 61.8122 28.0158 63.9266 29.6121 66.2262C31.2083 68.5258 32.8697 70.9998 34.5582 73.6645C36.3279 76.437 37.9429 79.306 39.3958 82.2581C40.1505 83.7949 40.8183 85.4024 41.497 87.0372C42.1756 88.672 42.8597 90.3341 43.5547 92.0125C46.208 98.3069 48.5029 104.747 50.4283 111.303" fill="#E0E0E0"/>
<path d="M39.5858 82.0886C39.6794 81.8126 39.7449 81.5278 39.7813 81.2385C39.8953 80.6936 40.0256 79.8871 40.183 78.9008C40.4925 76.9172 40.8291 74.1707 41.1929 71.1355C41.5567 68.1002 41.9422 65.3646 42.2788 63.3974C42.4525 62.4111 42.6045 61.6155 42.7131 61.0651C42.786 60.783 42.8333 60.4948 42.8543 60.2041C42.7445 60.4738 42.6591 60.7528 42.5991 61.0378C42.4525 61.5828 42.2733 62.3729 42.0562 63.3538C41.649 65.321 41.2309 68.062 40.8671 71.0973C40.5034 74.1326 40.1885 76.8246 39.9441 78.8681C39.8193 79.8217 39.7215 80.6119 39.6401 81.2222C39.596 81.5088 39.5778 81.7988 39.5858 82.0886Z" fill="#E0E0E0"/>
<path d="M13.79 76.9116C13.8758 76.9412 13.9655 76.9577 14.0561 76.9607L14.8216 77.037C15.484 77.1024 16.4504 77.1895 17.6286 77.3421C19.9958 77.6255 23.248 78.1323 26.8151 78.8516C30.3822 79.5709 33.5801 80.3774 35.8713 81.0313C37.0223 81.3474 37.9453 81.6308 38.586 81.8215L39.3189 82.0395C39.4046 82.0701 39.4942 82.0884 39.585 82.0939C39.585 82.0939 39.5035 82.0449 39.3407 81.9795L38.6186 81.707C37.9942 81.4836 37.0766 81.1621 35.931 80.8297C33.6615 80.1049 30.4474 79.2875 26.8748 78.5573C23.3023 77.8271 20.0284 77.3585 17.6449 77.1296C16.4559 77.0043 15.4731 76.9498 14.8216 76.9225H14.0561C13.9686 76.9041 13.8787 76.9004 13.79 76.9116Z" fill="#E0E0E0"/>
<path d="M50.4121 110.736C50.4828 110.638 50.5429 110.532 50.5913 110.42C50.7053 110.18 50.8573 109.875 51.0419 109.499C51.4328 108.698 51.9649 107.521 52.6056 106.061C53.8978 103.14 55.5483 99.0583 57.3183 94.5244C59.0882 89.9906 60.7116 85.8982 61.9495 82.961L63.4263 79.4843L63.8227 78.5416C63.879 78.4331 63.921 78.3176 63.9475 78.1982C63.8768 78.2969 63.8167 78.4029 63.7684 78.5143C63.6543 78.7541 63.5023 79.0592 63.3177 79.4352C62.9322 80.2417 62.3947 81.4133 61.7541 82.8738C60.4673 85.7946 58.8113 89.8816 57.0414 94.4155C55.2714 98.9493 53.648 103.036 52.4101 105.979C51.802 107.418 51.3242 108.595 50.9333 109.45L50.537 110.398C50.4835 110.506 50.4416 110.619 50.4121 110.736Z" fill="#E0E0E0"/>
<path d="M16.207 99.2432C16.3153 99.3033 16.4301 99.3508 16.5491 99.3849L17.5427 99.7227L21.2129 100.949C24.3022 101.99 28.5643 103.477 33.2607 105.128C37.9571 106.78 42.23 108.245 45.3465 109.232C46.9047 109.728 48.1643 110.115 49.0439 110.365L50.0537 110.654C50.1713 110.689 50.291 110.716 50.4121 110.736C50.3045 110.674 50.1896 110.627 50.07 110.594L49.0765 110.256L45.4116 109.03C42.3169 107.989 38.0603 106.502 33.3584 104.845C28.6566 103.188 24.3891 101.734 21.2781 100.747C19.7198 100.251 18.4548 99.8644 17.5807 99.6083L16.5654 99.3249C16.4498 99.2826 16.3294 99.2552 16.207 99.2432Z" fill="#E0E0E0"/>
<path d="M54.2497 0H23.6172C21.5062 0 19.7949 1.71758 19.7949 3.83633V19.0236C19.7949 21.1424 21.5062 22.86 23.6172 22.86H54.2497C56.3607 22.86 58.072 21.1424 58.072 19.0236V3.83633C58.072 1.71758 56.3607 0 54.2497 0Z" fill="#E0E0E0"/>
<path d="M43.0762 22.1299L52.1269 30.2003L52.8708 22.277" fill="#E0E0E0"/>
<path d="M33.9551 11.7538C33.9562 12.197 33.8262 12.6305 33.5817 12.9995C33.3372 13.3686 32.989 13.6565 32.5814 13.8268C32.1737 13.9972 31.7249 14.0423 31.2917 13.9565C30.8584 13.8707 30.4603 13.6578 30.1477 13.3448C29.8351 13.0318 29.622 12.6328 29.5355 12.1982C29.4489 11.7636 29.4928 11.3129 29.6615 10.9034C29.8303 10.4938 30.1163 10.1437 30.4834 9.89737C30.8504 9.65103 31.2821 9.51953 31.7237 9.51953C32.3145 9.51953 32.8813 9.75475 33.2996 10.1736C33.718 10.5924 33.9537 11.1607 33.9551 11.7538Z" fill="white"/>
<path d="M41.627 11.7538C41.6281 12.197 41.4981 12.6305 41.2536 12.9995C41.009 13.3686 40.6609 13.6565 40.2532 13.8268C39.8456 13.9972 39.3968 14.0423 38.9635 13.9565C38.5303 13.8707 38.1322 13.6578 37.8196 13.3448C37.507 13.0318 37.2939 12.6328 37.2073 12.1982C37.1208 11.7636 37.1647 11.3129 37.3334 10.9034C37.5021 10.4938 37.7881 10.1437 38.1552 9.89737C38.5223 9.65103 38.954 9.51953 39.3955 9.51953C39.9864 9.51953 40.5532 9.75475 40.9715 10.1736C41.3898 10.5924 41.6256 11.1607 41.627 11.7538Z" fill="white"/>
<path d="M49.293 11.7538C49.2941 12.1972 49.164 12.631 48.9192 13.0001C48.6744 13.3693 48.326 13.6572 47.918 13.8274C47.51 13.9975 47.0609 14.0424 46.6275 13.9561C46.1942 13.8699 45.7961 13.6564 45.4837 13.3429C45.1713 13.0293 44.9586 12.6298 44.8727 12.1948C44.7868 11.7599 44.8314 11.3091 45.001 10.8996C45.1705 10.4901 45.4574 10.1404 45.8252 9.89472C46.193 9.64904 46.6252 9.51846 47.067 9.51954C47.6574 9.51954 48.2236 9.75493 48.641 10.1739C49.0585 10.5929 49.293 11.1612 49.293 11.7538Z" fill="white"/>
<path d="M165.122 24.5135L157.497 43.9717L186.262 55.3266L193.887 35.8684L165.122 24.5135Z" fill="#EBEBEB"/>
<path d="M193.877 36.1294C193.759 36.1909 193.635 36.242 193.508 36.282L192.422 36.6689L188.442 38.0531L175.249 42.5052L175.14 42.5379L175.086 42.4398L174.945 42.2C172.23 37.4046 169.743 33.0724 167.941 29.9008L165.845 26.1572L165.302 25.1327C165.234 25.0151 165.175 24.8932 165.123 24.7676C165.211 24.8713 165.288 24.9846 165.351 25.1054L165.954 26.1027L168.125 29.8028L175.184 42.0583L175.319 42.2981L175.157 42.2381L188.382 37.8787L192.389 36.5817L193.475 36.2439C193.605 36.1933 193.74 36.155 193.877 36.1294Z" fill="#E0E0E0"/>
<path d="M157.485 44.2373C157.447 44.1665 160.655 42.3518 164.651 40.183C168.648 38.0142 171.911 36.314 171.949 36.3685C171.987 36.423 168.778 38.2539 164.782 40.4228C160.786 42.5916 157.523 44.3027 157.485 44.2373Z" fill="#E0E0E0"/>
<path d="M181.607 39.9111C181.683 39.9111 182.78 43.3824 184.061 47.7091C185.342 52.0359 186.325 55.5834 186.227 55.5834C186.129 55.5834 185.054 52.1176 183.773 47.7854C182.492 43.4532 181.531 39.9329 181.607 39.9111Z" fill="#E0E0E0"/>
<path d="M236.829 229.858C236.829 229.935 183.811 230 118.42 230C53.0287 230 0 229.962 0 229.858C0 229.755 53.007 229.717 118.42 229.717C183.833 229.717 236.829 229.782 236.829 229.858Z" fill="#263238"/>
<path d="M122.704 116.784C126.572 116.784 129.708 113.637 129.708 109.754C129.708 105.872 126.572 102.725 122.704 102.725C118.836 102.725 115.7 105.872 115.7 109.754C115.7 113.637 118.836 116.784 122.704 116.784Z" fill="#5271FF"/>
<path d="M146.811 116.784C150.679 116.784 153.814 113.637 153.814 109.754C153.814 105.872 150.679 102.725 146.811 102.725C142.942 102.725 139.807 105.872 139.807 109.754C139.807 113.637 142.942 116.784 146.811 116.784Z" fill="#5271FF"/>
<path d="M193.427 73.3859C193.564 73.3635 193.703 73.3635 193.839 73.3859C194.247 73.3852 194.653 73.4291 195.05 73.5167C195.712 73.6537 196.348 73.8946 196.934 74.2305C197.864 74.7526 198.663 75.482 199.268 76.3625C199.873 77.243 200.269 78.2511 200.425 79.3093C200.477 79.643 200.506 79.9798 200.512 80.3174C200.512 80.6498 200.512 80.9931 200.512 81.3419C200.512 82.0394 200.512 82.7642 200.512 83.5216C200.512 86.5406 200.561 90.0172 200.588 93.9135C200.626 101.712 200.675 111.199 200.729 122.108C200.729 124.837 200.738 127.654 200.757 130.56C200.757 132.013 200.757 133.487 200.757 134.98C200.757 135.726 200.757 136.478 200.757 137.236C200.757 137.612 200.757 137.993 200.757 138.375C200.752 138.785 200.717 139.195 200.653 139.601C200.375 141.296 199.52 142.842 198.232 143.975C196.945 145.108 195.306 145.758 193.595 145.813L183.708 145.851L184.289 145.306C183.649 152.287 182.975 159.654 182.275 167.305L182.166 168.504L181.238 167.736L154.737 145.758L155.171 145.916L100.758 145.944H87.9559C87.5215 145.944 87.1252 145.944 86.6637 145.944C86.1985 145.928 85.7354 145.873 85.2792 145.78C83.4397 145.381 81.8152 144.306 80.7239 142.767C80.1847 142.011 79.7907 141.161 79.562 140.26C79.3566 139.386 79.2726 138.487 79.3123 137.59C79.3123 135.912 79.3123 134.244 79.3123 132.587C79.3123 129.263 79.3123 125.968 79.3123 122.702C79.3123 109.624 79.3123 97.0414 79.3557 85.0365C79.3557 83.5398 79.3557 82.0485 79.3557 80.5626C79.3375 79.7638 79.4382 78.9667 79.6544 78.1976C79.8799 77.4233 80.2223 76.6882 80.6696 76.0179C81.5752 74.7015 82.8736 73.7074 84.3779 73.1788C85.1161 72.9169 85.8917 72.777 86.6745 72.7646C87.4184 72.7646 88.1079 72.7646 88.8191 72.7646L105.303 72.8028L134.893 72.8845L177.731 73.1134L189.377 73.2442L192.406 73.315C192.752 73.3071 193.097 73.3327 193.438 73.3913C193.096 73.4423 192.751 73.466 192.406 73.4622L189.377 73.533L177.731 73.6638L134.893 73.8927L105.303 73.9744L88.8191 74.0126C88.1187 74.0126 87.3858 74.0126 86.7017 74.0126C86.0515 74.0264 85.4079 74.146 84.796 74.3668C83.5476 74.8107 82.4717 75.6407 81.7229 76.7372C80.9667 77.8608 80.5864 79.1968 80.6371 80.5518C80.6371 82.034 80.6371 83.5271 80.6371 85.0256C80.6371 97.0142 80.6642 109.629 80.6751 122.691C80.6751 125.961 80.6751 129.256 80.6751 132.577C80.6751 134.211 80.6751 135.901 80.6751 137.579C80.6335 138.357 80.7011 139.136 80.876 139.895C81.1615 141.002 81.7477 142.008 82.5692 142.801C83.3907 143.594 84.4153 144.142 85.5289 144.385C85.9009 144.461 86.2788 144.505 86.6582 144.516C87.0437 144.516 87.4998 144.516 87.9124 144.516H100.769L155.182 144.543H155.427L155.617 144.701L182.112 166.749L181.08 167.18C181.813 159.551 182.519 152.161 183.187 145.181L183.236 144.636H183.779H193.633C195.088 144.593 196.483 144.045 197.582 143.087C198.681 142.128 199.415 140.817 199.66 139.377C199.717 139.029 199.749 138.678 199.758 138.326V137.187C199.758 136.429 199.758 135.677 199.758 134.931C199.758 133.432 199.758 131.961 199.758 130.511C199.758 127.605 199.768 124.788 199.79 122.059C199.844 111.161 199.888 101.662 199.926 93.8645C199.958 89.9682 199.986 86.4915 200.007 83.4726C200.007 82.7151 200.007 81.9904 200.007 81.2929C200.007 80.9441 200.007 80.6008 200.007 80.2684C200.01 79.9513 199.99 79.6344 199.948 79.3202C199.812 78.1951 199.387 77.1248 198.715 76.2141C198.188 75.4895 197.521 74.8781 196.755 74.4158C196.202 74.0705 195.6 73.8115 194.969 73.6474C193.986 73.4077 193.427 73.4349 193.427 73.3859Z" fill="#5271FF"/>
<path d="M42.7621 108.37H148.51C150.44 108.37 152.29 109.139 153.654 110.509C155.019 111.878 155.785 113.736 155.785 115.672V172.917C155.785 174.854 155.019 176.711 153.654 178.081C152.29 179.45 150.44 180.22 148.51 180.22H42.7621C40.834 180.22 38.9849 179.451 37.6215 178.082C36.2581 176.714 35.4922 174.858 35.4922 172.923V115.667C35.4922 113.732 36.2581 111.876 37.6215 110.507C38.9849 109.139 40.834 108.37 42.7621 108.37Z" fill="#5271FF"/>
<path d="M108.669 177.926L137.108 203.271L139.443 178.373" fill="#5271FF"/>
<path d="M72.9824 152.342C76.8505 152.342 79.9863 149.194 79.9863 145.312C79.9863 141.43 76.8505 138.282 72.9824 138.282C69.1143 138.282 65.9785 141.43 65.9785 145.312C65.9785 149.194 69.1143 152.342 72.9824 152.342Z" fill="white"/>
<path d="M97.0937 152.342C100.962 152.342 104.098 149.194 104.098 145.312C104.098 141.43 100.962 138.282 97.0937 138.282C93.2256 138.282 90.0898 141.43 90.0898 145.312C90.0898 149.194 93.2256 152.342 97.0937 152.342Z" fill="white"/>
<path d="M121.2 152.342C125.068 152.342 128.204 149.194 128.204 145.312C128.204 141.43 125.068 138.282 121.2 138.282C117.332 138.282 114.196 141.43 114.196 145.312C114.196 149.194 117.332 152.342 121.2 152.342Z" fill="white"/>
<g opacity="0.3">
<path d="M151.3 108.681L139.991 108.349H52.5781C59.8426 115.596 70.229 119.482 80.4362 120.375C90.6435 121.269 100.889 119.705 110.987 117.95C121.086 116.196 131.217 114.234 141.462 114.31C143.634 114.31 145.86 114.419 147.869 113.618C149.878 112.817 151.594 110.834 151.3 108.681Z" fill="#0F1223"/>
</g>
<path d="M170.917 116.784C174.785 116.784 177.921 113.637 177.921 109.754C177.921 105.872 174.785 102.725 170.917 102.725C167.049 102.725 163.913 105.872 163.913 109.754C163.913 113.637 167.049 116.784 170.917 116.784Z" fill="#5271FF"/>
<path d="M110.564 6.39746C107.743 6.43833 105.008 7.37464 102.75 9.07213C100.492 10.7696 98.8275 13.1411 97.9953 15.8466C97.1971 18.6421 97.3546 21.6229 96.8497 24.4838C96.3447 27.3447 94.8951 30.3527 92.1913 31.3827C90.4267 32.0529 88.3907 31.775 86.6533 32.4725C85.8361 32.8012 85.1141 33.3306 84.5535 34.012C83.993 34.6934 83.6118 35.5051 83.4448 36.3727C83.2779 37.2403 83.3306 38.1361 83.598 38.978C83.8654 39.8199 84.3391 40.5809 84.9756 41.1915C83.8982 42.1191 83.175 43.3932 82.9294 44.7964C82.6838 46.1996 82.931 47.6449 83.6288 48.8856C84.3266 50.1262 85.4318 51.0853 86.7558 51.5992C88.0797 52.1131 89.5403 52.1498 90.8882 51.7032C89.8783 53.3053 90.2095 55.5178 91.3877 57.0109C92.6442 58.4549 94.4135 59.3486 96.3176 59.5012C98.204 59.646 100.101 59.4747 101.932 58.9944C106.047 58.0844 110.179 56.6131 113.268 53.7413C116.667 50.5916 118.464 46.1122 119.821 41.6546C122.422 33.1809 123.806 24.0588 121.678 15.4488" fill="#263238"/>
<path d="M91.6376 53.632L87.0607 63.6751L77.0435 41.5018C76.5711 39.709 76.0445 37.6873 75.9576 37.284C75.7911 36.6667 75.7341 36.0248 75.7893 35.3876C75.8205 34.5928 75.9612 33.806 76.2074 33.0499C76.506 32.3851 75.8382 31.6984 75.2681 32.0309C74.698 32.3633 73.8076 34.1779 73.8402 36.5102C73.8727 38.8425 65.7938 33.2788 64.4854 34.6029L65.4626 42.3955C66.3476 43.2074 68.8506 45.4417 70.2351 46.6841L79.6822 70.2797C80.2133 71.7303 81.1467 72.9982 82.3722 73.9339C83.5977 74.8696 85.0642 75.434 86.5988 75.5606C88.1335 75.6872 89.6721 75.3707 91.0334 74.6484C92.3947 73.9261 93.5218 72.8281 94.2817 71.484L100.368 60.7107L91.6376 53.632Z" fill="#FFBE9D"/>
<path d="M70.4138 27.4803C70.4537 27.467 70.4959 27.4622 70.5377 27.4662C70.5796 27.4701 70.6201 27.4828 70.6569 27.5032C70.6936 27.5237 70.7257 27.5516 70.7512 27.5852C70.7766 27.6187 70.7949 27.6572 70.8047 27.6982L76.0115 43.1743C76.0611 43.309 76.0639 43.4565 76.0196 43.593C75.9752 43.7294 75.8863 43.8469 75.7672 43.9263L69.5831 47.4085C69.5202 47.44 69.451 47.4571 69.3807 47.4587C69.3104 47.4603 69.2405 47.4463 69.1762 47.4177C69.1119 47.389 69.0547 47.3465 69.0086 47.2931C68.9626 47.2397 68.9289 47.1767 68.9099 47.1088L63.0679 31.0605C63.0092 30.9152 63.0073 30.7531 63.0627 30.6066C63.1181 30.46 63.2266 30.3399 63.3665 30.2703L70.4138 27.4803Z" fill="#263238"/>
<path d="M70.5824 28.5977L75.3602 42.4117L69.2522 45.6759L64.002 31.2242L70.5824 28.5977Z" fill="#F5F5F5"/>
<path d="M65.1533 32.1511L65.8374 33.8567C65.8588 33.9123 65.8912 33.9629 65.9326 34.0056C65.974 34.0483 66.0236 34.0821 66.0784 34.105C66.1332 34.1279 66.192 34.1394 66.2514 34.1389C66.3107 34.1384 66.3693 34.1258 66.4237 34.102L69.6814 32.7342L70.8052 32.9031L70.4903 32.3037L70.8595 32.1565C70.9146 32.1339 70.9647 32.1005 71.0068 32.0583C71.049 32.0161 71.0823 31.9659 71.1051 31.9107C71.1278 31.8554 71.1394 31.7962 71.1392 31.7365C71.139 31.6767 71.127 31.6176 71.1039 31.5626L70.4415 30.0095C70.3948 29.9015 70.308 29.8161 70.1995 29.7713C70.091 29.7265 69.9694 29.726 69.8605 29.7697L65.4193 31.6062C65.3155 31.6477 65.2309 31.7265 65.1817 31.8272C65.1326 31.9279 65.1224 32.0433 65.1533 32.1511Z" fill="#E0E0E0"/>
<path d="M67.9434 40.3246L68.6221 42.0357C68.6677 42.146 68.755 42.2337 68.8649 42.2797C68.9747 42.3256 69.0982 42.3261 69.2084 42.281L72.4661 40.9077L73.5845 41.0767L73.2696 40.4772L73.6442 40.3301C73.7545 40.2831 73.842 40.1945 73.8877 40.0834C73.9334 39.9722 73.9337 39.8475 73.8886 39.7361L73.2207 38.1831C73.1751 38.0755 73.0893 37.9901 72.9817 37.9453C72.8742 37.9005 72.7533 37.8997 72.6452 37.9433L68.204 39.7416C68.0925 39.7843 68.0024 39.8697 67.9535 39.979C67.9047 40.0883 67.901 40.2126 67.9434 40.3246Z" fill="#E0E0E0"/>
<path d="M71.7005 34.0905C71.9068 34.5537 72.2435 35.3057 72.4389 35.7743C72.4629 35.829 72.4758 35.8879 72.4767 35.9476C72.4777 36.0073 72.4667 36.0666 72.4444 36.1219C72.4222 36.1773 72.3891 36.2277 72.3471 36.27C72.3051 36.3123 72.2551 36.3457 72.2 36.3683L68.9424 37.7252L68.2746 38.6461L68.0737 38.0031L67.7045 38.1611C67.6501 38.1852 67.5914 38.1981 67.5319 38.1991C67.4724 38.2 67.4133 38.189 67.3582 38.1667C67.303 38.1443 67.2529 38.1111 67.2107 38.069C67.1685 38.0268 67.1352 37.9766 67.1127 37.9214L66.4775 36.3574C66.4335 36.2488 66.4333 36.1273 66.4768 36.0185C66.5204 35.9098 66.6043 35.8222 66.7109 35.7743L71.125 33.8616C71.2316 33.8159 71.3519 33.8143 71.4597 33.8572C71.5675 33.9001 71.654 33.9839 71.7005 34.0905Z" fill="#E0E0E0"/>
<path d="M64.4746 35.0117C65.5225 35.1806 66.8092 35.2896 67.8625 35.4586C68.1641 35.4841 68.4549 35.5833 68.7095 35.7474C68.8359 35.8309 68.929 35.9563 68.9726 36.1017C69.0163 36.2471 69.0077 36.4033 68.9484 36.543C68.7801 36.8427 68.3675 36.8699 68.0254 36.859C67.249 36.859 66.3966 36.9953 65.6202 36.9735C66.6084 37.0552 67.5205 37.137 68.6226 37.2732C68.8565 37.2938 69.0763 37.3944 69.2453 37.558C69.4142 37.7216 69.5222 37.9385 69.5511 38.1723C69.5331 38.3706 69.4468 38.5563 69.3071 38.6975C69.1673 38.8388 68.9829 38.9267 68.7855 38.9461C68.3806 38.9723 67.9743 38.9723 67.5694 38.9461C67.5694 38.9461 65.9785 38.9461 65.908 39.1805C66.9015 39.1805 68.2154 39.3875 69.2036 39.4747C69.4751 39.4747 69.5999 39.8725 69.6651 40.1395C69.7027 40.2705 69.6947 40.4105 69.6424 40.5363C69.59 40.6621 69.4966 40.7663 69.3773 40.8316C69.2518 40.8749 69.1187 40.8916 68.9864 40.8806C67.7051 40.8371 67.0318 40.9188 65.7288 40.8806" fill="#FFBE9D"/>
<path d="M88.3034 70.8414C88.4069 69.5965 88.3649 68.3437 88.1786 67.1086C87.8958 65.8919 87.4731 64.7124 86.9189 63.5938C87.1848 63.8572 87.4002 64.1676 87.5542 64.5092C87.9806 65.3071 88.2845 66.1651 88.4555 67.0541C88.6246 67.9521 88.6594 68.8704 88.5586 69.7787C88.538 70.1455 88.4515 70.5055 88.3034 70.8414Z" fill="#EB996E"/>
<path d="M69.4421 39.6378C68.6925 39.6896 67.9395 39.6493 67.1997 39.5179C66.5862 39.458 66.0215 39.3326 65.6469 39.3326C65.441 39.342 65.2401 39.3999 65.0605 39.5016C65.0605 39.5016 65.0605 39.4198 65.1528 39.3326C65.288 39.2182 65.4546 39.1478 65.6306 39.131C66.1756 39.1121 66.7212 39.1467 67.2594 39.2345C68.0013 39.2735 68.735 39.409 69.4421 39.6378Z" fill="#EB996E"/>
<path d="M69.0888 37.3769C68.3465 37.4286 67.6007 37.3884 66.8682 37.257C66.2655 37.2025 65.7009 37.0663 65.3371 37.0826C65.1449 37.1077 64.96 37.1726 64.7942 37.2733C64.7561 37.2733 64.8919 36.9573 65.3371 36.881C65.5783 36.8457 65.8234 36.8457 66.0646 36.881L66.9225 36.9682C67.6588 37.0129 68.3866 37.1502 69.0888 37.3769Z" fill="#EB996E"/>
<path d="M100.069 84.0551C100.069 84.0551 67.026 81.5539 57.4649 89.0631C47.9038 96.5722 52.4807 108.681 52.4807 108.681H106.514L108.593 83.6682L100.069 84.0551Z" fill="#263238"/>
<path d="M106.285 101.286C106.124 101.286 105.962 101.273 105.802 101.248C105.487 101.215 105.026 101.166 104.429 101.09C103.234 100.937 101.508 100.687 99.3901 100.327C93.8607 99.3766 88.3912 98.103 83.0097 96.5125C79.8607 95.5752 76.8854 94.627 74.1273 93.9459C71.6948 93.3132 69.2077 92.9154 66.6999 92.7579C65.0093 92.6639 63.3135 92.7626 61.6451 93.0522C61.0479 93.1285 60.6027 93.281 60.2932 93.3355C60.1366 93.3777 59.9768 93.4068 59.8154 93.4227C59.9651 93.3615 60.1195 93.3123 60.2769 93.2756C60.5864 93.2047 61.0316 93.0413 61.6234 92.9432C63.2977 92.6107 65.0058 92.4826 66.7107 92.5617C69.2355 92.6972 71.7403 93.0879 74.187 93.7279C76.9614 94.4036 79.9475 95.3627 83.0911 96.2782C88.4636 97.856 93.915 99.1493 99.4227 100.153C101.535 100.54 103.256 100.817 104.445 100.997L105.813 101.215C105.972 101.225 106.13 101.249 106.285 101.286Z" fill="#455A64"/>
<path d="M75.0991 93.8152C74.1711 93.0347 73.1774 92.3364 72.1293 91.7281C71.0342 91.2106 69.8971 90.7876 68.7305 90.4639C69.0963 90.4379 69.4638 90.4767 69.8163 90.5783C70.6714 90.7644 71.497 91.0669 72.2704 91.4775C73.046 91.8843 73.7637 92.3938 74.4042 92.9924C74.6812 93.2245 74.9163 93.5029 75.0991 93.8152Z" fill="#455A64"/>
<path d="M123.991 80.9326C123.991 80.9326 93.7604 81.7555 84.1993 89.2646C74.6381 96.7738 79.2151 108.882 79.2151 108.882L135.898 109.76V102.447L128.546 101.646L128.492 101.313C131.348 98.1743 129.176 87.2593 124.431 81.4939L123.991 80.9326Z" fill="#263238"/>
<path d="M132.477 102.093C132.316 102.089 132.154 102.076 131.994 102.055C131.679 102.022 131.218 101.973 130.62 101.891C129.426 101.739 127.705 101.494 125.582 101.134C120.054 100.183 114.587 98.9094 109.207 97.3194C106.058 96.3876 103.077 95.4394 100.319 94.7582C97.8891 94.1229 95.4035 93.7251 92.8971 93.5703C91.2048 93.4761 89.5072 93.5748 87.837 93.8646C87.2452 93.9408 86.8 94.088 86.485 94.1425C86.3297 94.1833 86.1719 94.2143 86.0127 94.2351C86.1616 94.1716 86.3161 94.1223 86.4742 94.088C86.9167 93.9528 87.3662 93.8418 87.8207 93.7556C89.4928 93.4205 91.1992 93.2906 92.9026 93.3687C95.4277 93.4968 97.9339 93.8765 100.384 94.5021C103.153 95.1724 106.139 96.1369 109.283 97.047C114.655 98.6262 120.107 99.9213 125.615 100.927C127.732 101.308 129.448 101.586 130.637 101.772L132.005 101.984C132.165 102.007 132.323 102.044 132.477 102.093Z" fill="#455A64"/>
<path d="M101.286 94.6164C100.357 93.8378 99.3638 93.1413 98.3158 92.5348C97.2235 92.0105 96.0858 91.5874 94.917 91.2705C95.2828 91.2446 95.6504 91.2833 96.0029 91.3849C96.8579 91.571 97.6836 91.8735 98.4569 92.2841C99.2345 92.6878 99.9525 93.1976 100.591 93.799C100.867 94.0295 101.102 94.306 101.286 94.6164Z" fill="#455A64"/>
<path d="M108.36 82.1976C108.207 82.2379 108.051 82.2634 107.893 82.2739L106.547 82.4646C105.385 82.639 103.702 82.9223 101.66 83.3419C99.6189 83.7615 97.1431 84.2901 94.4339 84.9386C91.4887 85.6137 88.6649 86.7404 86.0618 88.279C84.7287 89.08 83.5073 90.0548 82.4295 91.1781C81.4368 92.238 80.5912 93.4276 79.9157 94.7147C78.7739 96.9014 78.169 99.3301 78.1512 101.799C78.1423 103.461 78.3839 105.114 78.8678 106.703C79.047 107.248 79.2045 107.695 79.3185 107.984C79.3852 108.128 79.4397 108.277 79.4814 108.431C79.3972 108.295 79.3246 108.153 79.2642 108.006C79.0758 107.591 78.9091 107.168 78.7647 106.736C78.232 105.141 77.9571 103.47 77.9503 101.788C77.9416 99.2793 78.5377 96.8058 79.6877 94.5785C80.3659 93.2648 81.2209 92.0509 82.2286 90.971C83.3201 89.8267 84.5601 88.8351 85.9152 88.0229C88.534 86.4667 91.3789 85.3305 94.347 84.6552C97.0617 84.0231 99.5266 83.5054 101.601 83.1185C103.675 82.7316 105.363 82.47 106.536 82.3284C107.122 82.2575 107.578 82.2139 107.888 82.1921C108.045 82.1818 108.203 82.1836 108.36 82.1976Z" fill="#455A64"/>
<path d="M135.897 102.779L141.072 102.452L144.492 104.452L151.056 105.171C154.205 105.34 154.699 108.73 152.767 108.73C151.235 108.73 142.038 109.335 142.038 109.335L135.897 109.493V102.779Z" fill="#E0E0E0"/>
<path d="M144.297 104.463C144.074 104.661 143.799 104.79 143.505 104.834C142.803 105.014 142.063 104.97 141.388 104.708C140.713 104.447 140.135 103.98 139.737 103.373C139.546 103.142 139.427 102.86 139.395 102.562C139.438 102.562 139.568 102.85 139.894 103.254C140.308 103.786 140.859 104.197 141.487 104.44C142.115 104.684 142.797 104.752 143.461 104.638C143.977 104.556 144.281 104.425 144.297 104.463Z" fill="#455A64"/>
<path d="M152.506 108.665C152.506 108.697 152.24 108.768 151.871 108.572C151.646 108.433 151.453 108.248 151.303 108.029C151.153 107.811 151.051 107.563 151.002 107.302C150.847 106.792 150.896 106.241 151.138 105.766C151.349 105.411 151.594 105.308 151.61 105.335C151.626 105.362 151.453 105.526 151.317 105.88C151.154 106.321 151.14 106.804 151.279 107.253C151.366 107.714 151.612 108.128 151.974 108.425C152.267 108.61 152.506 108.621 152.506 108.665Z" fill="#455A64"/>
<path d="M101.606 39.6488C101.606 39.6488 95.1613 53.8661 95.5576 56.2802C95.9539 58.6943 97.7945 68.3232 97.7945 68.3232L99.1573 83.9955C99.1573 83.9955 123.497 81.0311 124.008 81.0311C124.518 81.0311 123.247 68.0671 123.247 68.0671L126.95 43.1528C126.95 43.1528 125.251 39.7578 117.585 38.5862C112.964 37.8778 101.606 39.6488 101.606 39.6488Z" fill="#5271FF"/>
<path d="M119.376 58.8083C119.687 61.3429 120.465 63.7971 121.673 66.045C122.14 66.8951 122.574 68.0776 123.345 68.6607C124.55 69.5708 126.282 68.7098 127.379 67.6689C128.476 66.6281 129.551 65.3094 131.082 65.2603C132.037 65.2222 132.928 65.729 133.867 65.9252C134.806 66.1213 136.039 65.8216 136.245 64.8843C136.304 64.3301 136.171 63.7724 135.87 63.304C133.569 58.7085 131.805 53.8608 130.615 48.8579C130.37 47.8225 129.23 45.7027 128.709 44.7818C128.188 43.8608 126.76 42.5039 125.381 41.4141" fill="#5271FF"/>
<path d="M106.177 38.6895C99.4829 38.9292 94.4553 43.3704 93.0273 46.5801C91.3497 50.3347 90.0466 54.8849 88.0812 58.4978C87.6416 59.1717 87.3014 59.9058 87.0713 60.6775C86.9575 61.0725 86.9667 61.493 87.0977 61.8826C87.2287 62.2722 87.4752 62.6123 87.8043 62.8572C88.8142 63.4512 90.2801 62.6774 91.2085 63.4022C91.7243 63.7945 91.8709 64.492 92.2944 64.9825C92.8373 65.5656 93.6897 65.6855 94.4661 65.7672L98.9888 66.2576" fill="#5271FF"/>
<path d="M117.894 52.5802C117.78 52.4128 117.692 52.2291 117.634 52.0352C117.437 51.5242 117.301 50.9921 117.226 50.4495C116.96 48.6362 117.326 46.7863 118.263 45.2132C119.2 43.6401 120.65 42.4405 122.368 41.8177C122.878 41.6244 123.408 41.4909 123.948 41.4199C124.146 41.39 124.347 41.39 124.545 41.4199C123.828 41.5659 123.124 41.7681 122.439 42.0248C120.795 42.679 119.413 43.8594 118.507 45.3828C117.601 46.9062 117.221 48.6873 117.427 50.4495C117.529 51.1705 117.685 51.8827 117.894 52.5802Z" fill="#263238"/>
<path d="M99.4715 47.0107C99.3783 47.2592 99.262 47.4982 99.124 47.7246C98.9991 47.9426 98.858 48.215 98.7059 48.542C98.5539 48.869 98.3639 49.2286 98.1956 49.6319C97.7693 50.6025 97.4066 51.6001 97.1097 52.6181C96.7704 53.8699 96.5218 55.1448 96.3659 56.4326C96.2311 57.7212 96.1912 59.0181 96.2464 60.3126C96.3005 61.3695 96.4238 62.4216 96.6156 63.4623C96.6808 63.9091 96.7894 64.3069 96.8654 64.6557C96.9414 65.0044 97.0174 65.3096 97.088 65.5494C97.1693 65.8018 97.2292 66.0606 97.2671 66.3232C97.1497 66.0851 97.0534 65.8371 96.9794 65.5821C96.8925 65.3423 96.8002 65.0371 96.7079 64.6993C96.6156 64.3614 96.4962 63.9527 96.4202 63.5004C96.1953 62.4559 96.0501 61.3956 95.9858 60.3289C95.9146 59.0205 95.9473 57.7086 96.0836 56.4054C96.2388 55.1041 96.4984 53.8175 96.8599 52.5582C97.1641 51.5332 97.5415 50.5315 97.9893 49.561C98.1684 49.1414 98.3747 48.7818 98.5322 48.4712C98.6725 48.1965 98.8265 47.9291 98.9937 47.6701C99.1313 47.4353 99.2913 47.2145 99.4715 47.0107Z" fill="#263238"/>
<path d="M135.849 62.9558C135.84 63.0137 135.82 63.0692 135.789 63.1193C135.712 63.2624 135.607 63.3884 135.48 63.4899C134.983 63.8358 134.371 63.9727 133.775 63.8713C133.02 63.7841 132.233 63.3264 131.315 63.1684C130.813 63.1025 130.303 63.1495 129.821 63.3059C129.34 63.4624 128.899 63.7244 128.53 64.0729C127.678 64.7541 126.983 65.5879 126.163 66.1491C125.784 66.4344 125.352 66.6418 124.892 66.7595C124.492 66.8382 124.083 66.8621 123.676 66.8303C123.083 66.8068 122.506 66.6324 121.999 66.3235C121.864 66.2341 121.745 66.1237 121.646 65.9966C121.586 65.9039 121.559 65.8494 121.57 65.844C121.72 65.9885 121.883 66.118 122.058 66.2309C122.564 66.4873 123.121 66.6234 123.687 66.6287C124.074 66.6482 124.461 66.6152 124.838 66.5306C125.265 66.4084 125.664 66.2069 126.016 65.9366C126.793 65.3917 127.471 64.5634 128.356 63.8495C128.787 63.4926 129.276 63.2125 129.801 63.0212C130.3 62.84 130.839 62.8022 131.359 62.9122C132.336 63.1193 133.102 63.5716 133.802 63.6751C134.175 63.7848 134.574 63.7744 134.941 63.6454C135.308 63.5164 135.625 63.2752 135.849 62.9558Z" fill="#FAFAFA"/>
<path d="M134.291 59.7676C134.291 59.7676 134.291 59.8221 134.258 59.9202C134.196 60.0611 134.104 60.186 133.987 60.2853C133.763 60.4552 133.505 60.5732 133.231 60.6307C132.957 60.6882 132.673 60.6837 132.401 60.6177C131.712 60.4978 130.99 60.0728 130.132 60.002C129.18 60.0146 128.257 60.3273 127.493 60.8957C126.651 61.4406 125.924 62.1435 125.169 62.6503C124.511 63.1365 123.746 63.4545 122.938 63.5767C122.386 63.6654 121.821 63.5935 121.309 63.3696C121.119 63.3001 120.95 63.1817 120.82 63.0263C120.82 63.0263 121.005 63.1353 121.363 63.2661C121.859 63.4372 122.39 63.4766 122.905 63.3805C123.67 63.2329 124.391 62.9103 125.012 62.4378C125.739 61.931 126.456 61.2499 127.336 60.6559C128.146 60.0535 129.129 59.7321 130.137 59.7404C130.573 59.7781 131.001 59.8867 131.402 60.0619C131.739 60.2049 132.086 60.3251 132.439 60.4216C132.686 60.4898 132.945 60.5053 133.199 60.4668C133.452 60.4283 133.695 60.3368 133.911 60.1981C134.061 60.0776 134.189 59.932 134.291 59.7676Z" fill="#FAFAFA"/>
<path d="M96.2573 63.9146C96.1568 64.0296 96.0176 64.1033 95.8664 64.1217C95.661 64.1564 95.4506 64.1467 95.2492 64.0931C95.0479 64.0396 94.8603 63.9434 94.6991 63.8111C94.2621 63.4003 93.9178 62.9005 93.6892 62.3452C93.5714 62.0282 93.3874 61.7402 93.1496 61.5005C92.9117 61.2609 92.6255 61.0751 92.3101 60.9556C91.6261 60.8455 90.9265 60.8827 90.2578 61.0646C89.6689 61.211 89.0502 61.1826 88.477 60.9829C88.2849 60.9073 88.1097 60.7942 87.9615 60.6502C87.8133 60.5061 87.6951 60.3339 87.6137 60.1437C87.5106 59.8658 87.5649 59.6968 87.5757 59.7023C87.5866 59.7077 87.5757 59.8603 87.7169 60.1001C87.8992 60.4291 88.1974 60.6779 88.553 60.7976C89.0947 60.9491 89.6673 60.9491 90.209 60.7976C90.9145 60.5937 91.6565 60.5508 92.3807 60.6723C92.7672 60.7782 93.1109 61.0031 93.3634 61.3153C93.5799 61.5919 93.7622 61.8938 93.9064 62.2144C94.1094 62.7469 94.4178 63.2326 94.8131 63.6421C94.9506 63.7675 95.1118 63.864 95.2871 63.9257C95.4625 63.9875 95.6483 64.0134 95.8338 64.0018C96.0998 63.9855 96.241 63.8928 96.2573 63.9146Z" fill="#FAFAFA"/>
<path d="M95.4329 60.7102C95.4329 60.7102 95.3189 60.7702 95.1072 60.7102C94.8242 60.6023 94.5866 60.4004 94.4339 60.1381C94.2579 59.7728 94.0083 59.4481 93.701 59.1844C93.2547 58.9858 92.7531 58.9511 92.2839 59.0863C91.7596 59.199 91.2174 59.199 90.6931 59.0863C90.2674 58.9824 89.8656 58.7974 89.5095 58.5414C89.1613 58.3382 88.8844 58.0317 88.7168 57.6641C89.003 57.9179 89.3039 58.1545 89.6181 58.3725C90.4041 58.8504 91.3445 59.0029 92.2405 58.7975C92.7849 58.6483 93.3651 58.7066 93.8693 58.961C94.2067 59.2573 94.4675 59.6313 94.6294 60.0509C94.7512 60.2933 94.9396 60.4956 95.1723 60.6339C95.3189 60.6884 95.4329 60.683 95.4329 60.7102Z" fill="#FAFAFA"/>
<path d="M120.946 63.5171C120.623 63.4672 120.304 63.3962 119.99 63.3046C119.377 63.1629 118.486 62.9558 117.379 62.7596C116.836 62.6561 116.222 62.5525 115.565 62.4763C114.875 62.3751 114.176 62.3458 113.48 62.3891C112.721 62.499 111.986 62.7406 111.308 63.1029C110.592 63.4626 109.87 63.904 109.088 64.2854C108.328 64.6873 107.495 64.9302 106.639 64.9993C105.845 65.0286 105.051 64.9405 104.283 64.7377C103.026 64.3444 101.746 64.0313 100.45 63.8004C99.5776 63.6705 98.6871 63.7547 97.8545 64.0457C97.5566 64.1761 97.2681 64.3272 96.9912 64.498C96.9912 64.498 97.0509 64.4326 97.1812 64.3236C97.376 64.1742 97.5873 64.048 97.811 63.9476C98.6528 63.6022 99.57 63.4838 100.471 63.6043C101.781 63.8031 103.075 64.0963 104.343 64.4816C105.087 64.6726 105.855 64.7534 106.623 64.7214C107.442 64.6491 108.239 64.4158 108.968 64.0348C109.734 63.6588 110.451 63.2174 111.189 62.8523C111.9 62.4714 112.675 62.2239 113.475 62.122C114.19 62.0822 114.907 62.1187 115.614 62.231C116.271 62.3182 116.884 62.4381 117.438 62.5525C118.524 62.7814 119.425 63.0212 120.033 63.201C120.338 63.2882 120.576 63.3645 120.728 63.419C120.88 63.4735 120.951 63.5062 120.946 63.5171Z" fill="#FAFAFA"/>
<path d="M121.505 66.2524C121.198 66.1453 120.897 66.0216 120.603 65.8819C120.022 65.6421 119.181 65.2933 118.117 64.9664C117.54 64.7808 116.947 64.6477 116.347 64.5686C115.662 64.5077 114.973 64.5969 114.327 64.8301C112.942 65.3042 111.612 66.3287 109.983 66.9663C109.187 67.2733 108.339 67.4232 107.486 67.4077C106.702 67.3867 105.921 67.3011 105.151 67.1516C103.873 66.8583 102.576 66.658 101.269 66.5521C100.393 66.4935 99.5131 66.6064 98.6795 66.8845C98.0931 67.0971 97.8054 67.2987 97.7891 67.2714C97.8495 67.2124 97.9169 67.1611 97.9899 67.1189C98.1952 66.9845 98.4135 66.8713 98.6415 66.781C99.4802 66.4567 100.377 66.3102 101.275 66.3505C102.593 66.43 103.904 66.6122 105.195 66.8954C106.634 67.1407 108.306 67.3368 109.88 66.7047C111.455 66.0726 112.78 65.0699 114.224 64.5849C114.906 64.3443 115.633 64.2587 116.352 64.3342C116.965 64.4274 117.568 64.5751 118.155 64.7756C118.999 65.0555 119.824 65.3904 120.625 65.7783C120.907 65.92 121.125 66.0344 121.271 66.1162C121.354 66.1517 121.433 66.1974 121.505 66.2524Z" fill="#FAFAFA"/>
<path d="M114.25 65.2824C114.124 65.325 113.992 65.347 113.859 65.3478C113.498 65.3842 113.135 65.3842 112.773 65.3478C112.236 65.2825 111.708 65.1563 111.199 64.9718C109.945 64.5167 108.832 63.7409 107.968 62.7212C107.617 62.3073 107.315 61.8538 107.067 61.3698C106.899 61.0462 106.762 60.7067 106.66 60.3562C106.614 60.2304 106.588 60.0979 106.584 59.9639C106.633 59.9639 106.796 60.5088 107.241 61.2717C107.505 61.7266 107.815 62.1538 108.164 62.5468C108.594 63.0235 109.074 63.4511 109.597 63.822C110.127 64.1819 110.693 64.4851 111.286 64.7266C111.776 64.9157 112.283 65.0562 112.801 65.1462C113.686 65.2715 114.25 65.2279 114.25 65.2824Z" fill="#263238"/>
<g opacity="0.3">
<path d="M106.606 60.5195C106.976 62.5467 107.747 64.5738 109.223 66.007C110.7 67.4402 112.964 68.1867 114.875 67.4184C115.084 67.3609 115.275 67.2543 115.434 67.1073C115.592 66.9604 115.714 66.7774 115.788 66.5737C115.822 66.3211 115.767 66.0644 115.632 65.8483C115.497 65.6323 115.291 65.4705 115.049 65.3912C114.574 65.2379 114.076 65.1679 113.578 65.1842C112.153 65.089 110.776 64.6308 109.577 63.8527C108.378 63.0746 107.397 62.0024 106.726 60.7375" fill="#0F1223"/>
</g>
<path d="M122.525 68.6067C122.423 68.4363 122.345 68.253 122.292 68.0618C122.156 67.7185 121.971 67.2171 121.749 66.5959C121.314 65.3534 120.755 63.6206 120.191 61.6915C119.626 59.7624 119.175 57.9968 118.877 56.7163C118.725 56.0732 118.611 55.5501 118.54 55.1904C118.489 55.013 118.46 54.83 118.453 54.6455C118.543 54.8168 118.607 55.0004 118.643 55.1904C118.763 55.6046 118.904 56.1059 119.067 56.689C119.42 57.9587 119.903 59.7134 120.462 61.637C121.021 63.5606 121.548 65.3044 121.939 66.5414C122.118 67.1245 122.265 67.6313 122.389 68.0345C122.463 68.2174 122.508 68.4103 122.525 68.6067Z" fill="#263238"/>
<path d="M98.0166 84.2079C98.0166 84.2079 102.708 79.1618 106.812 78.17C110.917 77.1782 125.62 71.9687 125.62 71.9687L124.697 69.0315C125.64 68.9269 126.515 68.486 127.161 67.789L128.112 66.8354C129.404 65.424 130.962 64.6556 133.221 65.424L134.643 65.8545L136.131 70.214C136.473 71.2296 136.588 72.3087 136.467 73.3741C136.346 74.4395 135.992 75.465 135.43 76.3771C134.869 77.2892 134.113 78.0655 133.218 78.6505C132.322 79.2355 131.309 79.6148 130.251 79.7612L98.0166 84.2079Z" fill="#FFBE9D"/>
<path d="M131.723 72.5959C130.755 72.2695 129.762 72.027 128.753 71.8711C127.733 71.8129 126.711 71.8439 125.696 71.9638C126.683 71.6068 127.738 71.4782 128.782 71.5877C129.825 71.6971 130.831 72.0418 131.723 72.5959Z" fill="#EB996E"/>
<path d="M98.7226 15.2577C98.2991 8.42424 107.214 3.60158 113.273 5.32357C118.969 6.95837 121.417 9.78112 122.335 13.6066C123.252 17.432 123.225 21.5735 121.732 25.2136C120.999 27.0119 119.669 28.8374 117.747 29.0609" fill="#263238"/>
<path d="M116.906 11.0291C117.388 11.082 117.832 11.3137 118.153 11.6786C118.473 12.0435 118.646 12.5154 118.638 13.0018L117.552 39.2403C117.508 42.3355 113.002 44.0848 109.696 44.0194C106.357 43.9485 106.248 42.3028 106.199 39.3547C106.118 34.4503 106.118 32.5812 106.118 32.6139C106.118 32.6466 101.899 31.9109 101.025 26.3853C100.591 23.6607 100.726 19.1377 100.96 15.454C101.166 12.1408 103.354 8.07556 106.644 8.42432L116.906 11.0291Z" fill="#FFBE9D"/>
<path d="M102.377 19.0285C102.375 19.2136 102.446 19.392 102.574 19.5254C102.702 19.6588 102.877 19.7367 103.061 19.7424C103.151 19.7498 103.241 19.7391 103.327 19.7108C103.412 19.6826 103.491 19.6374 103.559 19.5779C103.627 19.5185 103.682 19.446 103.722 19.3647C103.761 19.2835 103.784 19.1951 103.789 19.1048C103.79 18.9197 103.719 18.7414 103.592 18.6079C103.464 18.4745 103.289 18.3966 103.105 18.391C103.015 18.3835 102.924 18.3943 102.839 18.4225C102.753 18.4508 102.674 18.4959 102.606 18.5554C102.539 18.6148 102.483 18.6873 102.444 18.7686C102.405 18.8499 102.382 18.9383 102.377 19.0285Z" fill="#263238"/>
<path d="M101.92 17.7974C102.007 17.8901 102.545 17.4923 103.305 17.4923C104.065 17.4923 104.619 17.8792 104.7 17.7865C104.782 17.6939 104.651 17.574 104.412 17.3996C104.083 17.169 103.69 17.0471 103.289 17.0509C102.898 17.0535 102.518 17.1793 102.203 17.4105C101.958 17.5904 101.877 17.7538 101.92 17.7974Z" fill="#263238"/>
<path d="M109.804 19.029C109.801 19.2136 109.87 19.3919 109.997 19.5255C110.124 19.6591 110.299 19.7372 110.482 19.7429C110.572 19.7503 110.663 19.7395 110.748 19.7113C110.834 19.683 110.913 19.6379 110.981 19.5784C111.048 19.519 111.104 19.4465 111.143 19.3652C111.182 19.2839 111.205 19.1955 111.21 19.1053C111.212 18.9211 111.142 18.7435 111.015 18.6103C110.888 18.477 110.715 18.3985 110.531 18.3914C110.441 18.3832 110.351 18.3934 110.265 18.4214C110.179 18.4493 110.1 18.4945 110.032 18.554C109.964 18.6136 109.908 18.6865 109.869 18.7681C109.83 18.8497 109.808 18.9385 109.804 19.029Z" fill="#263238"/>
<path d="M109.386 17.9389C109.473 18.0316 110.011 17.6338 110.771 17.6392C111.531 17.6447 112.085 18.0207 112.166 17.928C112.247 17.8354 112.117 17.721 111.873 17.5411C111.544 17.3135 111.154 17.1919 110.754 17.1924C110.364 17.195 109.984 17.3208 109.668 17.552C109.424 17.7319 109.343 17.8953 109.386 17.9389Z" fill="#263238"/>
<path d="M106.633 23.5897C106.231 23.4644 105.815 23.3894 105.395 23.3663C105.205 23.3663 105.02 23.3118 104.988 23.1755C104.968 22.9739 105.014 22.7714 105.118 22.5979L105.661 21.1157C106.459 19.0068 107.035 17.3012 106.948 17.2412C106.318 18.4518 105.786 19.711 105.357 21.0067C105.162 21.5262 104.981 22.0221 104.814 22.4944C104.695 22.7299 104.661 22.9993 104.716 23.2573C104.745 23.3266 104.788 23.3885 104.844 23.4386C104.899 23.4886 104.965 23.5253 105.037 23.5461C105.143 23.5749 105.252 23.5896 105.362 23.5897C105.784 23.6463 106.211 23.6463 106.633 23.5897Z" fill="#263238"/>
<path d="M106.106 32.6138C108.698 32.6534 111.249 31.9685 113.474 30.6357C113.474 30.6357 111.688 34.4503 106.182 33.9053L106.106 32.6138Z" fill="#EB996E"/>
<path d="M106.96 25.4265C107.104 25.2441 107.293 25.1018 107.507 25.0131C107.722 24.9244 107.956 24.8922 108.187 24.9197C108.353 24.9343 108.516 24.983 108.663 25.0626C108.81 25.1422 108.94 25.2512 109.044 25.3829C109.146 25.5099 109.207 25.6651 109.219 25.8277C109.23 25.9903 109.192 26.1526 109.11 26.2929C108.987 26.4296 108.826 26.5264 108.648 26.5711C108.47 26.6157 108.283 26.6061 108.111 26.5436C107.751 26.4157 107.421 26.2175 107.139 25.9605C107.053 25.9001 106.98 25.8244 106.922 25.7371C106.894 25.6951 106.879 25.6458 106.879 25.5954C106.879 25.545 106.894 25.4957 106.922 25.4537" fill="#EB996E"/>
<path d="M108.864 24.1183C108.739 24.1183 108.739 24.9411 108.034 25.5242C107.328 26.1073 106.454 26.0201 106.443 26.14C106.432 26.2599 106.638 26.298 106.986 26.3089C107.468 26.3159 107.937 26.1519 108.31 25.8457C108.669 25.5491 108.9 25.1259 108.957 24.6632C109.011 24.3199 108.924 24.1128 108.864 24.1183Z" fill="#263238"/>
<path d="M109.044 16.6035C109.12 16.8106 109.88 16.7125 110.771 16.8215C111.661 16.9305 112.399 17.1702 112.497 16.985C112.551 16.8978 112.427 16.7016 112.133 16.5C111.747 16.2524 111.308 16.0993 110.852 16.0531C110.397 15.9981 109.936 16.0522 109.506 16.2112C109.18 16.3474 109.011 16.5054 109.044 16.6035Z" fill="#263238"/>
<path d="M102.203 15.5903C102.333 15.7647 102.86 15.5903 103.484 15.5903C104.109 15.5903 104.646 15.7102 104.771 15.5304C104.825 15.4377 104.744 15.2688 104.51 15.0999C104.197 14.9025 103.832 14.8038 103.463 14.8165C103.093 14.8258 102.735 14.9474 102.436 15.1653C102.214 15.3288 102.143 15.5086 102.203 15.5903Z" fill="#263238"/>
<path d="M109.375 6.58203C107.504 6.67496 105.686 7.23701 104.087 8.21683C103.19 8.67813 102.392 9.31275 101.74 10.0842C101.088 10.8557 100.594 11.7489 100.286 12.7125C100.21 12.9128 100.174 13.1265 100.182 13.3409C100.189 13.5553 100.24 13.766 100.33 13.9604C100.506 14.181 100.752 14.334 101.027 14.3936C101.302 14.4532 101.589 14.4157 101.839 14.2874C102.334 14.0127 102.755 13.6219 103.066 13.1485C103.199 13.6587 103.498 14.1096 103.916 14.4297C104.334 14.7497 104.846 14.9205 105.371 14.9149C105.897 14.9092 106.405 14.7275 106.816 14.3986C107.226 14.0696 107.516 13.6124 107.638 13.0994C107.681 13.6289 107.925 14.1214 108.321 14.4745C108.716 14.8277 109.232 15.0144 109.761 14.9958C110.288 14.9497 110.791 14.7498 111.207 14.4206C111.623 14.0914 111.933 13.6473 112.101 13.143C112.23 14.109 112.559 15.0372 113.067 15.8677C113.331 16.2781 113.714 16.5968 114.165 16.7801C114.616 16.9635 115.113 17.0026 115.586 16.8922C115.397 17.7012 115.417 18.5456 115.646 19.3444C115.934 20.1236 117.275 37.0275 118.073 36.7822C118.871 36.537 118.616 19.3444 118.822 18.5488C119.212 17.0377 119.409 15.4831 119.409 13.9223C119.404 12.3567 118.911 10.8319 117.997 9.56282C116.957 8.31415 115.542 7.43826 113.963 7.06702C112.394 6.70641 110.783 6.55978 109.174 6.63108" fill="#263238"/>
<path d="M90.226 28.4614C90.226 28.4614 90.1608 28.3579 90.0034 28.2053C89.7756 27.9827 89.486 27.8345 89.1727 27.7802C88.93 27.7341 88.6806 27.7384 88.4397 27.7927C88.1988 27.8471 87.9715 27.9504 87.7719 28.0963C87.5238 28.3074 87.3348 28.5797 87.2234 28.8864C87.112 29.1932 87.0821 29.5237 87.1366 29.8455C87.1873 30.2228 87.3289 30.582 87.5493 30.8918C87.8007 31.2159 88.1268 31.474 88.4994 31.6438C88.9191 31.8271 89.3719 31.9217 89.8296 31.9217C90.2873 31.9217 90.7401 31.8271 91.1598 31.6438C92.0923 31.2161 92.8971 30.551 93.4944 29.7147C94.1632 28.8171 94.6771 27.8132 95.0147 26.7449C95.7313 24.5651 95.9268 22.3527 96.2308 20.3746C96.4492 18.5996 96.9153 16.8642 97.6153 15.2195C98.0966 14.1076 98.8115 13.1131 99.7111 12.3041C99.9607 12.0994 100.228 11.9171 100.509 11.7592C100.603 11.6953 100.703 11.6406 100.808 11.5957C100.808 11.6284 100.406 11.8518 99.7871 12.4131C98.9334 13.2386 98.2572 14.2308 97.7999 15.3285C97.1353 16.9654 96.6934 18.6847 96.486 20.44C96.1983 22.4126 96.0137 24.636 95.2807 26.8647C94.9362 27.954 94.4133 28.9779 93.7333 29.8946C93.103 30.7667 92.2546 31.4566 91.2738 31.8945C90.8237 32.0929 90.3375 32.1953 89.8459 32.1953C89.3543 32.1953 88.8681 32.0929 88.418 31.8945C88.0092 31.7089 87.6542 31.422 87.3864 31.0607C87.148 30.7195 86.997 30.3246 86.9466 29.9109C86.8935 29.556 86.9337 29.1933 87.0632 28.8587C87.1927 28.5242 87.407 28.2294 87.685 28.0036C87.9045 27.8521 88.1529 27.7477 88.4145 27.6971C88.6761 27.6464 88.9453 27.6506 89.2052 27.7094C89.5358 27.7767 89.8352 27.9509 90.0576 28.2053C90.1282 28.2801 90.1852 28.3668 90.226 28.4614Z" fill="#263238"/>
<path d="M119.408 37.5129C119.408 37.5129 119.729 37.344 120.261 36.9679C121.001 36.429 121.634 35.7563 122.128 34.9844C122.854 33.8252 123.328 32.5254 123.518 31.1699C123.726 29.5149 123.654 27.8367 123.306 26.2055C122.97 24.4563 122.476 22.8269 122.041 21.3393C121.607 19.8516 121.249 18.5002 121.032 17.3449C120.852 16.4323 120.747 15.5064 120.717 14.5766C120.717 14.2442 120.717 13.9936 120.717 13.8192C120.704 13.7324 120.704 13.6444 120.717 13.5576C120.744 13.5576 120.717 13.9173 120.787 14.5712C120.857 15.4878 120.991 16.3983 121.189 17.2959C121.428 18.4402 121.803 19.7808 122.275 21.263C122.792 22.8736 123.223 24.5107 123.567 26.1674C123.921 27.8293 123.987 29.5399 123.763 31.2244C123.553 32.6038 123.045 33.9205 122.275 35.0825C121.763 35.866 121.098 36.5372 120.32 37.0551C120.106 37.1905 119.883 37.3107 119.653 37.4148C119.495 37.4911 119.414 37.5238 119.408 37.5129Z" fill="#263238"/>
<path d="M120.392 33.9705C120.332 34.0112 120.266 34.0424 120.196 34.0632C120.004 34.1361 119.803 34.1855 119.599 34.2103C118.832 34.2902 118.06 34.1283 117.389 33.7471C116.391 33.1742 115.634 32.256 115.261 31.1641C114.814 29.8495 114.668 28.4509 114.832 27.0717C114.962 25.6113 115.228 24.2544 115.348 23.0065C115.467 21.7586 115.538 20.6306 115.56 19.6824C115.581 18.7342 115.56 17.9604 115.56 17.4318C115.536 17.1562 115.536 16.8791 115.56 16.6035C115.615 16.8781 115.644 17.1572 115.646 17.4373C115.69 17.9822 115.739 18.7397 115.739 19.6933C115.739 20.6469 115.706 21.7858 115.587 23.0446C115.467 24.3034 115.223 25.6712 115.093 27.1044C114.931 28.4449 115.064 29.8048 115.484 31.0878C115.827 32.13 116.53 33.015 117.465 33.5836C118.098 33.9664 118.828 34.1558 119.566 34.1286C120.109 34.0632 120.381 33.9433 120.392 33.9705Z" fill="#263238"/>
<path d="M84.8836 38.9463C84.8742 38.761 84.9019 38.5757 84.9651 38.4013C85.1343 37.9145 85.4514 37.4933 85.8718 37.197C86.5272 36.722 87.3065 36.4493 88.1141 36.4123C89.0479 36.3306 90.1067 36.4668 91.2523 36.4123C92.5061 36.3004 93.7146 35.8874 94.7759 35.208C95.9923 34.4271 97.0319 33.3986 97.8272 32.1891C98.7013 30.8451 99.3147 29.3475 99.6352 27.7751C99.9821 26.0855 100.128 24.3605 100.07 22.6364C100.037 20.8599 99.8253 19.1325 99.7167 17.4486C99.5581 15.8225 99.6607 14.1813 100.021 12.5878C100.352 11.2284 101.061 9.99124 102.065 9.02066C103.07 8.05008 104.328 7.386 105.694 7.10581C106.739 6.89326 107.818 6.92308 108.849 7.193C109.619 7.39605 110.353 7.72169 111.021 8.15753C111.443 8.43167 111.833 8.75346 112.183 9.11661C112.276 9.20887 112.363 9.30717 112.443 9.41088C112.503 9.47627 112.53 9.51441 112.525 9.51441C112.051 9.03718 111.526 8.61326 110.961 8.25017C110.289 7.83622 109.556 7.53267 108.789 7.35103C107.781 7.1034 106.731 7.08664 105.716 7.30198C104.396 7.58806 103.184 8.24194 102.218 9.1885C101.252 10.1351 100.571 11.336 100.254 12.6532C99.9061 14.2209 99.8107 15.8344 99.9718 17.4323C100.08 19.0998 100.298 20.8381 100.33 22.631C100.387 24.3772 100.238 26.1241 99.885 27.8351C99.5543 29.4387 98.9223 30.9645 98.0227 32.3308C97.2094 33.569 96.1457 34.6217 94.9008 35.4205C93.8033 36.1067 92.5576 36.5179 91.2686 36.6194C90.0904 36.6848 89.0425 36.5322 88.125 36.6194C87.3479 36.6441 86.5943 36.8918 85.9532 37.3333C85.5402 37.6093 85.2203 38.0045 85.0356 38.4667C84.9766 38.6238 84.9259 38.7839 84.8836 38.9463Z" fill="#455A64"/>
<path d="M112.101 5.44922C112.101 5.44922 112.367 5.54731 112.644 5.87972C113.025 6.32159 113.256 6.87272 113.306 7.45457C113.346 8.02612 113.211 8.59621 112.921 9.08937C112.688 9.46538 112.465 9.63431 112.443 9.60706C112.421 9.57981 112.573 9.37274 112.742 8.99673C112.965 8.51314 113.062 7.98066 113.024 7.44912C112.971 6.91857 112.784 6.41033 112.481 5.97235C112.269 5.6345 112.069 5.44922 112.101 5.44922Z" fill="#455A64"/>
<path d="M122.943 19.5568C122.873 19.3385 122.824 19.1141 122.797 18.8865C122.715 18.456 122.596 17.8293 122.433 17.061C122.27 16.2926 122.058 15.3826 121.787 14.3799C121.651 13.884 121.499 13.3609 121.315 12.8323C121.136 12.2887 120.872 11.7773 120.533 11.3174C119.885 10.4196 119.001 9.71977 117.981 9.29567C117.141 8.96086 116.225 8.87205 115.337 9.03955C114.737 9.14982 114.166 9.38159 113.659 9.72072C113.295 9.96049 113.116 10.1349 113.116 10.1185C113.116 10.1022 113.149 10.064 113.225 9.97683C113.341 9.84948 113.468 9.73276 113.605 9.62808C114.108 9.24302 114.691 8.97499 115.31 8.84337C116.235 8.63889 117.199 8.71088 118.084 9.05045C119.162 9.47935 120.095 10.2093 120.772 11.1539C121.127 11.6355 121.404 12.1707 121.591 12.7396C121.776 13.2846 121.923 13.8295 122.058 14.3145C122.314 15.3281 122.504 16.249 122.645 17.0392C122.786 17.8293 122.873 18.4505 122.922 18.8865C122.954 19.1084 122.961 19.3332 122.943 19.5568Z" fill="#455A64"/>
<path d="M112.666 9.80843C112.069 9.74747 111.483 9.60634 110.923 9.38883C110.317 9.18721 109.696 9.03414 109.066 8.93109C108.302 8.82555 107.525 8.91167 106.802 9.18176C106.147 9.4306 105.558 9.8289 105.082 10.3453C104.606 10.8616 104.256 11.4819 104.06 12.1571C103.918 12.7297 103.84 13.3164 103.827 13.9063C103.773 13.752 103.744 13.5902 103.74 13.4268C103.716 12.9813 103.76 12.5347 103.87 12.1026C104.032 11.4628 104.33 10.8659 104.744 10.3534C105.265 9.72593 105.939 9.24525 106.7 8.95861C107.462 8.67197 108.285 8.58924 109.088 8.71856C109.732 8.83835 110.363 9.02085 110.972 9.2635C112.02 9.59591 112.671 9.80843 112.666 9.80843Z" fill="#455A64"/>
<path d="M221.969 194.596C222.447 192.923 223.479 191.326 225.069 190.618C226.66 189.909 228.642 190.313 230.336 190.928C232.03 191.544 233.697 192.372 235.494 192.487C237.291 192.601 239.327 191.74 239.864 190.013C240.369 188.378 239.397 186.656 238.176 185.479C236.887 184.232 235.305 183.33 233.577 182.859C231.849 182.387 230.031 182.359 228.29 182.779C226.549 183.199 224.941 184.052 223.615 185.26C222.289 186.469 221.288 187.992 220.704 189.691" fill="#263238"/>
<path d="M207.712 201.849C205.068 199.337 205.204 194.95 206.518 191.544C207.831 188.139 210.709 185.517 213.923 183.795C217.058 182.144 220.524 181.226 224.063 181.111C227.601 180.996 231.119 181.686 234.354 183.131C232.77 183.199 231.226 183.655 229.858 184.461C228.491 185.267 227.34 186.397 226.509 187.752C225.064 190.166 224.744 193.092 223.55 195.637C222.202 198.508 219.809 200.752 216.863 201.908C213.917 203.063 210.643 203.042 207.712 201.849Z" fill="#455A64"/>
<path d="M206.441 186.727C203.515 183.261 203.129 177.703 203.558 173.186C203.987 168.668 205.03 164.123 204.324 159.639C203.9 156.985 202.874 154.445 202.527 151.781C202.179 149.116 202.673 146.097 204.731 144.38C207.098 142.402 210.823 142.865 213.282 144.724C215.742 146.582 217.17 149.497 218.212 152.407C220.503 158.799 221.345 165.883 219.461 172.406C217.577 178.929 213.168 184.76 206.697 186.727" fill="#455A64"/>
<path d="M205.036 215.14C205.027 215.008 205.027 214.875 205.036 214.743C205.036 214.481 205.036 214.094 205.036 213.598C205.068 212.606 205.16 211.168 205.383 209.402C205.643 207.336 206.018 205.285 206.507 203.261C207.114 200.773 208.055 198.379 209.303 196.144C210.555 193.913 212.089 191.854 213.869 190.019C215.317 188.52 216.923 187.182 218.658 186.03C219.391 185.523 220.097 185.136 220.705 184.782C221.313 184.428 221.872 184.188 222.333 183.97L223.387 183.529C223.508 183.473 223.633 183.427 223.761 183.393C223.65 183.467 223.532 183.531 223.409 183.583L222.377 184.068C221.943 184.297 221.405 184.581 220.792 184.918C220.178 185.256 219.499 185.681 218.783 186.194C214.973 188.8 211.815 192.254 209.553 196.286C206.865 200.999 206.127 205.958 205.589 209.435C205.345 211.19 205.226 212.623 205.155 213.609C205.128 214.083 205.101 214.459 205.084 214.748C205.083 214.88 205.066 215.012 205.036 215.14Z" fill="#263238"/>
<path d="M179.827 173.065C174.398 176.335 174.436 179.321 175.337 182.133C176.238 184.945 179.561 186.901 182.308 185.85C183.866 185.256 185.023 183.899 185.957 182.531C186.891 181.163 187.824 179.708 189.171 178.716C190.517 177.725 192.477 177.36 193.829 178.329" fill="#263238"/>
<path d="M175.776 176.657C177.188 174.695 180.663 174.128 182.889 175.104C185.115 176.079 186.689 178.025 188.155 179.965C189.621 181.905 191.011 183.943 193.015 185.294C195.018 186.645 197.814 187.13 199.812 185.774C200.449 185.297 200.983 184.695 201.38 184.004C201.778 183.314 202.031 182.549 202.125 181.757C202.298 180.172 202.19 178.569 201.805 177.022C201.327 174.75 200.551 172.368 198.732 170.924C196.712 169.289 193.905 169.235 191.321 169.322C188.362 169.415 185.348 169.638 182.574 170.673C179.8 171.709 176.955 173.943 175.776 176.668" fill="#455A64"/>
<path d="M200.54 210.797C200.519 210.64 200.508 210.481 200.507 210.323L200.453 208.977C200.421 207.783 200.366 206.094 200.306 204.023C200.247 201.953 200.154 199.44 200.002 196.683C199.85 193.926 199.644 190.885 199.226 187.724C199.049 186.188 198.749 184.668 198.33 183.18C197.899 181.806 197.345 180.475 196.674 179.202C195.564 177.033 194.095 175.069 192.331 173.393C191.124 172.276 189.761 171.341 188.286 170.619C187.886 170.417 187.477 170.235 187.059 170.074C186.911 170.024 186.768 169.962 186.63 169.889C186.784 169.922 186.934 169.967 187.081 170.025C187.508 170.16 187.927 170.322 188.335 170.51C189.841 171.2 191.233 172.119 192.461 173.235C194.275 174.905 195.786 176.88 196.924 179.071C197.613 180.353 198.18 181.698 198.618 183.087C199.044 184.589 199.348 186.124 199.525 187.675C199.948 190.852 200.144 193.893 200.285 196.656C200.426 199.419 200.486 201.914 200.529 204.007C200.573 206.099 200.583 207.794 200.589 208.966C200.589 209.511 200.589 209.979 200.589 210.312C200.586 210.475 200.57 210.637 200.54 210.797Z" fill="#263238"/>
<path d="M202.516 213.249C202.254 212.489 202.052 211.709 201.913 210.917C201.539 208.758 201.455 206.559 201.663 204.378C201.993 201.141 202.681 197.952 203.716 194.869C204.802 191.376 206.333 187.643 207.619 183.627C208.249 181.667 208.759 179.671 209.145 177.649C209.505 175.774 209.763 173.88 209.916 171.976C210.162 168.749 210.22 165.51 210.09 162.276C209.997 159.514 209.856 157.274 209.764 155.737C209.726 154.98 209.688 154.386 209.666 153.955C209.666 153.764 209.666 153.612 209.666 153.492C209.66 153.44 209.66 153.386 209.666 153.334C209.68 153.386 209.689 153.439 209.693 153.492C209.693 153.612 209.721 153.764 209.737 153.955C209.775 154.38 209.829 154.974 209.894 155.732C210.014 157.274 210.188 159.508 210.307 162.271C210.466 165.513 210.426 168.761 210.188 171.998C209.9 175.973 209.125 179.897 207.88 183.681C206.588 187.708 205.073 191.441 203.955 194.918C202.911 197.979 202.205 201.146 201.848 204.362C201.622 206.539 201.676 208.737 202.011 210.901C202.147 211.658 202.266 212.247 202.369 212.639L202.478 213.091C202.497 213.142 202.51 213.195 202.516 213.249Z" fill="#263238"/>
<path d="M215.894 215.701H190.5L189.925 210.797H215.894V215.701Z" fill="#263238"/>
<path d="M193.227 215.14L196.403 229.858H210.199L213.174 215.14H193.227Z" fill="#263238"/>
<path d="M215.894 215.702C215.894 215.778 210.313 215.827 203.407 215.805C196.5 215.783 190.919 215.707 190.919 215.631C190.919 215.554 196.5 215.505 203.407 215.522C210.313 215.538 215.894 215.625 215.894 215.702Z" fill="#455A64"/>
<path d="M211.54 222.965C210.843 222.456 210.09 222.028 209.297 221.69C208.431 221.351 207.512 221.167 206.583 221.145C205.442 221.149 204.311 221.358 203.244 221.761C202.087 222.153 201.007 222.611 199.953 222.851C199.016 223.052 198.05 223.079 197.103 222.932C196.465 222.839 195.846 222.64 195.273 222.344C195.119 222.261 194.972 222.166 194.833 222.06C194.736 221.984 194.692 221.946 194.698 221.935C195.45 222.355 196.276 222.626 197.13 222.731C198.052 222.849 198.988 222.803 199.894 222.594C200.909 222.338 201.989 221.875 203.151 221.477C204.249 221.067 205.412 220.862 206.583 220.872C207.541 220.905 208.485 221.114 209.368 221.488C209.952 221.739 210.499 222.067 210.997 222.464C211.135 222.572 211.268 222.689 211.393 222.812C211.502 222.911 211.545 222.96 211.54 222.965Z" fill="#455A64"/>
<path d="M211.344 223.968C210.666 223.475 209.938 223.055 209.173 222.715C208.341 222.374 207.454 222.189 206.556 222.17C205.444 222.172 204.341 222.371 203.298 222.758C202.18 223.129 201.126 223.565 200.127 223.848C199.237 224.105 198.31 224.208 197.386 224.154C196.761 224.114 196.152 223.947 195.594 223.663C195.445 223.582 195.301 223.491 195.165 223.391C195.073 223.314 195.029 223.276 195.035 223.271C195.241 223.356 195.443 223.454 195.637 223.565C196.196 223.799 196.792 223.93 197.396 223.952C198.296 223.977 199.194 223.857 200.057 223.598C201.034 223.32 202.077 222.878 203.211 222.508C204.275 222.114 205.401 221.918 206.534 221.93C207.461 221.959 208.374 222.168 209.222 222.546C209.79 222.798 210.323 223.124 210.807 223.516C210.939 223.62 211.064 223.733 211.182 223.854C211.312 223.892 211.35 223.968 211.344 223.968Z" fill="white"/>
<path d="M211.789 221.99C211.071 221.461 210.299 221.01 209.487 220.644C208.604 220.263 207.661 220.038 206.702 219.979C205.525 219.955 204.356 220.162 203.259 220.59C202.145 221.028 201.007 221.401 199.85 221.707C198.876 221.874 197.881 221.874 196.907 221.707C196.25 221.601 195.613 221.395 195.018 221.097C194.858 221.012 194.706 220.916 194.561 220.808C194.464 220.737 194.415 220.693 194.42 220.682C194.426 220.671 194.648 220.808 195.066 220.998C195.665 221.251 196.295 221.421 196.94 221.505C197.89 221.641 198.857 221.621 199.801 221.445C200.944 221.129 202.069 220.753 203.172 220.317C204.302 219.882 205.508 219.678 206.718 219.718C208.373 219.85 209.952 220.465 211.262 221.489C211.403 221.601 211.537 221.721 211.664 221.848C211.745 221.936 211.794 221.985 211.789 221.99Z" fill="white"/>
<path d="M34.2813 206.328C33.1955 207.897 31.0563 207.38 30.0681 206.421C29.08 205.461 28.6674 204.072 28.2873 202.748C27.4186 199.723 26.5445 196.552 27.2014 193.484C27.356 192.55 27.7636 191.677 28.3796 190.961C28.6943 190.61 29.0944 190.347 29.5408 190.198C29.9872 190.049 30.4645 190.019 30.926 190.111C32.0119 190.394 32.6634 191.451 33.1466 192.454C34.5648 195.417 35.3067 198.66 35.3183 201.947C35.3183 203.472 35.1446 205.075 34.2868 206.339" fill="#5271FF"/>
<g opacity="0.2">
<path d="M34.2813 206.328C33.1955 207.897 31.0563 207.38 30.0681 206.421C29.08 205.461 28.6674 204.072 28.2873 202.748C27.4186 199.723 26.5445 196.552 27.2014 193.484C27.356 192.55 27.7636 191.677 28.3796 190.961C28.6943 190.61 29.0944 190.347 29.5408 190.198C29.9872 190.049 30.4645 190.019 30.926 190.111C32.0119 190.394 32.6634 191.451 33.1466 192.454C34.5648 195.417 35.3067 198.66 35.3183 201.947C35.3183 203.472 35.1446 205.075 34.2868 206.339" fill="#0F1223"/>
</g>
<path d="M30.1768 214.274C28.3416 213.41 26.2788 213.16 24.2914 213.56C23.2047 213.653 22.1812 214.112 21.3867 214.862C20.6592 215.663 20.518 217.08 21.3541 217.772C21.8927 218.138 22.5418 218.304 23.1892 218.241C24.742 218.241 26.4469 217.946 27.7119 218.889C28.4232 219.434 28.8955 220.311 29.7425 220.578C30.165 220.678 30.6084 220.638 31.006 220.463C31.4035 220.288 31.7337 219.988 31.9468 219.608C32.3515 218.825 32.4409 217.916 32.1966 217.069C32.0974 216.478 31.8635 215.919 31.5131 215.434C31.1628 214.949 30.7054 214.552 30.1768 214.274Z" fill="#5271FF"/>
<path d="M37.2837 208.579C36.7183 207.843 36.3401 206.981 36.1821 206.065C36.0241 205.15 36.091 204.209 36.377 203.326C36.9802 201.566 38.0524 200.005 39.4772 198.814C41.1001 197.373 42.9865 196.263 45.0314 195.544C45.8236 195.223 46.6756 195.078 47.529 195.119C47.9552 195.145 48.3688 195.274 48.734 195.496C49.0992 195.719 49.4049 196.027 49.6247 196.394C50.2056 197.511 49.6247 198.868 49.0438 199.974C47.9735 201.925 46.7537 203.789 45.3952 205.549C44.3093 206.961 43.0497 208.356 41.3829 208.999C39.7161 209.642 37.9895 209.543 37.1046 208.399" fill="#5271FF"/>
<path d="M34.3521 230.001C34.2937 229.767 34.2609 229.528 34.2544 229.287C34.2055 228.769 34.1404 228.115 34.0643 227.341C33.9707 226.382 33.8257 225.429 33.63 224.486C33.3692 223.337 33.017 222.211 32.5767 221.118C32.1533 220.027 31.5774 219.001 30.8664 218.072C30.2862 217.314 29.5441 216.696 28.6947 216.263C28.1201 215.978 27.5045 215.785 26.8704 215.691C26.6301 215.684 26.3914 215.65 26.1592 215.587C26.3994 215.565 26.6411 215.565 26.8813 215.587C27.5391 215.637 28.1827 215.805 28.7816 216.083C29.6742 216.505 30.4568 217.13 31.0673 217.909C31.8096 218.853 32.4097 219.901 32.8482 221.02C33.2875 222.129 33.6308 223.274 33.8743 224.442C34.0551 225.397 34.1802 226.361 34.2489 227.33C34.3141 228.159 34.3358 228.829 34.3467 229.292C34.3756 229.527 34.3775 229.765 34.3521 230.001Z" fill="#263238"/>
<path d="M34.2053 228.502C34.1924 228.391 34.1924 228.28 34.2053 228.169V227.238C34.2053 226.415 34.2053 225.227 34.1673 223.761C34.0912 220.824 33.8415 216.775 33.3583 212.317C32.8751 207.86 32.2181 203.854 31.6263 200.983C31.4851 200.263 31.344 199.615 31.2137 199.043C31.0834 198.471 30.9748 197.986 30.8716 197.588C30.7685 197.19 30.7087 196.912 30.6544 196.667C30.6204 196.561 30.6003 196.451 30.5947 196.34C30.6438 196.439 30.682 196.543 30.7087 196.65C30.7793 196.89 30.8716 197.195 30.9856 197.561C31.0997 197.926 31.23 198.438 31.3711 199.005C31.5123 199.571 31.6752 200.22 31.8272 200.939C32.6415 204.683 33.254 208.469 33.6623 212.279C34.151 216.742 34.3681 220.802 34.3899 223.723C34.3899 225.194 34.3899 226.387 34.341 227.205C34.3138 227.592 34.2976 227.902 34.2813 228.153C34.2663 228.271 34.2408 228.388 34.2053 228.502Z" fill="#263238"/>
<path d="M34.2051 220.665C34.179 220.337 34.179 220.007 34.2051 219.679C34.2431 219.042 34.33 218.126 34.5092 216.998C34.7243 215.684 35.0143 214.383 35.3779 213.102C35.8092 211.524 36.3536 209.98 37.0067 208.481C38.1355 205.725 39.7524 203.198 41.7791 201.021C42.1292 200.655 42.5009 200.311 42.8921 199.991C43.0659 199.844 43.2179 199.702 43.3699 199.582L43.8097 199.282C44.0705 199.08 44.3464 198.897 44.6349 198.737C43.6828 199.495 42.7763 200.308 41.9203 201.173C39.9582 203.366 38.3845 205.88 37.2673 208.606C36.6248 210.092 36.0807 211.62 35.6385 213.178C35.215 214.611 34.9327 215.93 34.7155 217.042C34.4983 218.153 34.3951 219.063 34.3246 219.695C34.3093 220.021 34.2693 220.346 34.2051 220.665Z" fill="#263238"/>
</g>
</g>
<defs>
<clipPath id="clip0_0_1">
<rect width="1440" height="1081" fill="white" transform="translate(-600 -242)"/>
</clipPath>
<clipPath id="clip1_0_1">
<rect width="240" height="230" fill="white"/>
</clipPath>
</defs>
</svg>
