<svg width="34" height="34" viewBox="0 0 34 34" fill="none" xmlns="http://www.w3.org/2000/svg">
<rect width="34" height="34" rx="7" fill="white"/>
<path d="M15.1586 20.5291C14.907 20.5291 14.6984 20.3205 14.6984 20.0689V17.4977L14.2566 17.9396C14.0786 18.1175 13.7841 18.1175 13.6061 17.9396C13.4282 17.7616 13.4282 17.4671 13.6061 17.2891L14.8334 16.0618C14.9623 15.933 15.1648 15.89 15.3366 15.9636C15.5084 16.0311 15.6188 16.203 15.6188 16.3871V20.0689C15.6188 20.3205 15.4102 20.5291 15.1586 20.5291Z" fill="#5271FF"/>
<path d="M16.3871 18.0739C16.2705 18.0739 16.154 18.031 16.0619 17.9389L14.8346 16.7117C14.6567 16.5337 14.6567 16.2392 14.8346 16.0612C15.0126 15.8832 15.3071 15.8832 15.4851 16.0612L16.7124 17.2885C16.8903 17.4664 16.8903 17.761 16.7124 17.9389C16.6203 18.031 16.5037 18.0739 16.3871 18.0739Z" fill="#5271FF"/>
<path d="M18.8418 23.5965H15.16C11.8279 23.5965 10.4043 22.1729 10.4043 18.8408V15.159C10.4043 11.827 11.8279 10.4033 15.16 10.4033H18.2282C18.4798 10.4033 18.6884 10.612 18.6884 10.8635C18.6884 11.1151 18.4798 11.3238 18.2282 11.3238H15.16C12.3311 11.3238 11.3248 12.3301 11.3248 15.159V18.8408C11.3248 21.6697 12.3311 22.676 15.16 22.676H18.8418C21.6707 22.676 22.677 21.6697 22.677 18.8408V15.7726C22.677 15.521 22.8857 15.3124 23.1373 15.3124C23.3888 15.3124 23.5975 15.521 23.5975 15.7726V18.8408C23.5975 22.1729 22.1738 23.5965 18.8418 23.5965Z" fill="#5271FF"/>
<path d="M23.1369 16.2329H20.6824C18.5837 16.2329 17.7676 15.4168 17.7676 13.3182V10.8636C17.7676 10.6795 17.878 10.5077 18.0499 10.4402C18.2217 10.3666 18.418 10.4095 18.553 10.5384L23.4621 15.4475C23.591 15.5763 23.6339 15.7788 23.5603 15.9507C23.4867 16.1225 23.321 16.2329 23.1369 16.2329ZM18.688 11.9743V13.3182C18.688 14.9013 19.0992 15.3125 20.6824 15.3125H22.0262L18.688 11.9743Z" fill="#5271FF"/>
</svg>
