<svg width="339" height="49" viewBox="0 0 339 49" fill="none" xmlns="http://www.w3.org/2000/svg">
<path d="M285.489 4.77479L285.97 7.89181C287.559 7.64685 288.709 6.24595 288.64 4.63975C288.571 3.03356 287.305 1.73621 285.701 1.62808L285.489 4.77479ZM164.84 35.0237L163.255 32.2972C161.842 33.1183 161.291 34.8817 161.984 36.3611C162.676 37.8405 164.384 38.5461 165.919 37.9872L164.84 35.0237ZM334.595 25.9102C336.292 26.3036 337.987 25.2469 338.38 23.5501C338.773 21.8533 337.717 20.1589 336.02 19.7655L334.595 25.9102ZM1.83764 48.0406C59.5595 32.139 196.853 1.96065 285.277 7.92149L285.701 1.62808C196.125 -4.41046 57.933 26.0444 0.162364 41.9594L1.83764 48.0406ZM285.009 1.65777C222.013 11.3698 193.428 14.7531 163.255 32.2972L166.425 37.7501C195.32 20.9496 222.453 17.6842 285.97 7.89181L285.009 1.65777ZM165.919 37.9872C182.342 32.0074 210.35 25.6793 241.435 22.5122C272.524 19.3446 306.389 19.371 334.595 25.9102L336.02 19.7655C306.87 13.0074 272.235 13.0337 240.796 16.237C209.353 19.4406 180.805 25.8541 163.761 32.0602L165.919 37.9872Z" fill="url(#paint0_linear_0_305)"/>
<defs>
<linearGradient id="paint0_linear_0_305" x1="335.308" y1="23.946" x2="77.6303" y2="31.3248" gradientUnits="userSpaceOnUse">
<stop offset="0.237875" stop-color="#5271FF"/>
<stop offset="0.982921" stop-color="#5271FF" stop-opacity="0"/>
</linearGradient>
</defs>
</svg>
