<svg width="63" height="60" viewBox="0 0 63 60" fill="none" xmlns="http://www.w3.org/2000/svg">
<path d="M29.338 1.72681L30.9482 3.34214L33.3318 0.152344H8.27148V24.4847C8.54933 24.4949 8.82728 24.5066 9.10734 24.5066C19.9635 24.5066 29.0085 16.7471 31.0526 6.45404L27.728 3.09957L29.338 1.72681Z" fill="#5271FF"/>
<path d="M35.9803 0.152344L31.3496 6.35127C33.353 16.6953 42.4213 24.5065 53.3137 24.5065C53.5938 24.5065 53.871 24.4949 54.1497 24.4846V0.152344H35.9803Z" fill="#5271FF"/>
<path d="M2.86816 56.647V53.0146H4.91389V53.3904H3.27296V54.5426H4.8152V54.9168H3.27296V56.2728H4.95017V56.647H2.86816Z" fill="#0F1223"/>
<path d="M6.3089 56.6465L5.1875 54.0205H5.59241L6.43881 56.0217L7.28522 54.0205H7.6955L6.57378 56.6465H6.3089Z" fill="#0F1223"/>
<path d="M7.79199 55.345C7.79199 54.9226 7.91642 54.5832 8.16063 54.3284C8.40484 54.0735 8.72149 53.9424 9.10066 53.9424C9.45875 53.9424 9.7443 54.0677 9.96773 54.3234C10.1909 54.5731 10.3052 54.8805 10.3052 55.2505C10.3052 55.3087 10.3052 55.3655 10.3001 55.4179H8.17634C8.197 55.9962 8.56595 56.3662 9.11089 56.3662C9.4693 56.3662 9.6823 56.251 9.91596 56.0013L10.1703 56.251C9.89529 56.5591 9.54195 56.7157 9.111 56.7157C8.7217 56.7157 8.39988 56.5904 8.15578 56.3457C7.91167 56.1004 7.79231 55.7719 7.79231 55.3655V55.345H7.79199ZM9.89498 55.0785C9.89498 54.865 9.81695 54.6824 9.661 54.5316C9.50536 54.3807 9.31851 54.3021 9.10056 54.3021C8.86141 54.3021 8.654 54.3807 8.48234 54.5316C8.3111 54.6824 8.21788 54.865 8.20228 55.0785H9.89498Z" fill="#0F1223"/>
<path d="M10.7646 56.6468V54.0207H11.1489V54.4635C11.2893 54.1722 11.5954 53.9785 11.9902 53.9785C12.5874 53.9785 12.9611 54.3696 12.9611 54.9689V56.6468H12.5765V55.052C12.5765 54.615 12.3116 54.3383 11.8915 54.3383C11.4554 54.3383 11.1489 54.6412 11.1489 55.0782V56.6468H10.7646Z" fill="#0F1223"/>
<path d="M13.718 56.647V54.3807H13.3857V54.0211H13.718V53.0146H14.1018V54.0211H14.6838V54.3807H14.1018V56.647H13.718Z" fill="#0F1223"/>
<path d="M16.8457 56.647V53.0146H18.082C18.3832 53.0146 18.6371 53.1194 18.8505 53.3277C19.0631 53.5309 19.1669 53.7917 19.1669 54.0989C19.1669 54.5789 18.8919 54.9693 18.4761 55.1309L19.349 56.647H18.8868L18.0713 55.2095H18.0662H17.2513V56.647H16.8457ZM17.2512 54.8337H18.04C18.2482 54.8337 18.4195 54.766 18.5544 54.6254C18.6945 54.4841 18.7619 54.3123 18.7619 54.0988C18.7619 53.6976 18.4659 53.3902 18.0661 53.3902H17.2512V54.8337Z" fill="#0F1223"/>
<path d="M19.5645 55.345C19.5645 54.9226 19.6893 54.5832 19.9337 54.3284C20.1775 54.0735 20.4938 53.9424 20.8733 53.9424C21.2317 53.9424 21.517 54.0677 21.7404 54.3234C21.9638 54.5731 22.0778 54.8805 22.0778 55.2505C22.0778 55.3087 22.0778 55.3655 22.0728 55.4179H19.949C19.97 55.9962 20.3386 56.3662 20.8836 56.3662C21.242 56.3662 21.4547 56.251 21.6882 56.0013L21.9429 56.251C21.6679 56.5591 21.3145 56.7157 20.8836 56.7157C20.4939 56.7157 20.1724 56.5904 19.9279 56.3457C19.6841 56.1004 19.5645 55.7719 19.5645 55.3655V55.345ZM21.6679 55.0785C21.6679 54.865 21.5895 54.6824 21.4342 54.5316C21.2782 54.3807 21.0911 54.3021 20.8733 54.3021C20.6346 54.3021 20.4264 54.3807 20.2551 54.5316C20.0839 54.6824 19.9902 54.865 19.9751 55.0785H21.6679Z" fill="#0F1223"/>
<path d="M22.5381 56.6468V54.0207H22.9219V54.4635C23.0627 54.1722 23.3689 53.9785 23.7636 53.9785C24.3607 53.9785 24.7344 54.3696 24.7344 54.9689V56.6468H24.3498V55.052C24.3498 54.615 24.085 54.3383 23.6649 54.3383C23.2289 54.3383 22.9219 54.6412 22.9219 55.0782V56.6468H22.5381Z" fill="#0F1223"/>
<path d="M25.4905 56.647V54.3807H25.1582V54.0211H25.4905V53.0146H25.8743V54.0211H26.4562V54.3807H25.8743V56.647H25.4905Z" fill="#0F1223"/>
<path d="M28.8796 54.4114V54.0211H29.2642V56.6471H28.8796V56.2568C28.7295 56.5219 28.4233 56.7259 27.9502 56.7259C27.5815 56.7259 27.2652 56.5955 27.0105 56.3296C26.7559 56.0638 26.626 55.7303 26.626 55.3342C26.626 54.9388 26.7559 54.6096 27.0105 54.3444C27.2653 54.0778 27.5816 53.9424 27.9502 53.9424C28.4233 53.9424 28.7295 54.1464 28.8796 54.4114ZM28.646 56.0748C28.8331 55.8768 28.9268 55.6314 28.9268 55.3342C28.9268 55.037 28.8331 54.7924 28.646 54.5994C28.4646 54.4014 28.2309 54.3022 27.9502 54.3022C27.6802 54.3022 27.4568 54.4014 27.2754 54.5994C27.0991 54.7924 27.0105 55.0371 27.0105 55.3342C27.0105 55.6313 27.0991 55.8768 27.2754 56.0748C27.4568 56.267 27.6803 56.3662 27.9502 56.3662C28.2309 56.3662 28.4646 56.267 28.646 56.0748Z" fill="#0F1223"/>
<path d="M29.8545 56.647V53.0146H30.239V56.647H29.8545Z" fill="#0F1223"/>
<path d="M30.9592 55.9538C31.0267 56.1782 31.2604 56.3501 31.6181 56.3501C32.0491 56.3501 32.1949 56.152 32.1949 55.9495C32.1949 55.8185 32.1478 55.7194 32.0491 55.6523C31.9562 55.5839 31.785 55.5009 31.5405 55.4018C31.063 55.214 30.8293 55.0159 30.8293 54.6358C30.8293 54.2345 31.1566 53.9424 31.618 53.9424C31.9714 53.9424 32.2261 54.0939 32.3762 54.3961L32.0649 54.5578C31.9713 54.3852 31.8262 54.297 31.6238 54.297C31.3792 54.297 31.213 54.4223 31.213 54.6357C31.213 54.8497 31.3901 54.959 31.7848 55.1105C32.3245 55.3187 32.5786 55.5474 32.5786 55.9494C32.5786 56.3661 32.2411 56.7097 31.6178 56.7097C31.1201 56.7097 30.7356 56.4811 30.6318 56.079L30.9592 55.9538Z" fill="#0F1223"/>
<path d="M34.7314 56.647V53.0146H35.1059L36.4867 55.3187L37.8682 53.0146H38.2368V56.647H37.837V53.8172L36.4867 56.0375L35.1313 53.8229V56.647H34.7314Z" fill="#0F1223"/>
<path d="M41.146 54.4114V54.0211H41.5306V56.6471H41.146V56.2568C40.9959 56.5219 40.6897 56.7259 40.2166 56.7259C39.8481 56.7259 39.5317 56.5955 39.277 56.3296C39.0224 56.0638 38.8926 55.7303 38.8926 55.3342C38.8926 54.9388 39.0224 54.6096 39.277 54.3444C39.5317 54.0778 39.8481 53.9424 40.2166 53.9424C40.6897 53.9424 40.9959 54.1464 41.146 54.4114ZM40.9125 56.0748C41.0995 55.8768 41.1932 55.6314 41.1932 55.3342C41.1932 55.037 41.0995 54.7924 40.9125 54.5994C40.731 54.4014 40.4973 54.3022 40.2165 54.3022C39.9466 54.3022 39.7232 54.4014 39.5418 54.5994C39.3655 54.7924 39.2769 55.0371 39.2769 55.3342C39.2769 55.6313 39.3655 55.8768 39.5418 56.0748C39.7233 56.267 39.9467 56.3662 40.2165 56.3662C40.4974 56.3662 40.731 56.267 40.9125 56.0748Z" fill="#0F1223"/>
<path d="M44.2545 54.4113V53.0146H44.639V56.647H44.2545V56.2567C44.1043 56.5218 43.7982 56.7258 43.325 56.7258C42.9565 56.7258 42.6402 56.5954 42.3855 56.3295C42.1308 56.0637 42.001 55.7302 42.001 55.3341C42.001 54.9387 42.1308 54.6094 42.3855 54.3443C42.6402 54.0777 42.9565 53.9423 43.325 53.9423C43.7982 53.9423 44.1044 54.1463 44.2545 54.4113ZM44.021 56.0747C44.2081 55.8767 44.3018 55.6313 44.3018 55.3341C44.3018 55.0369 44.2081 54.7923 44.021 54.5993C43.8395 54.4013 43.6058 54.3021 43.325 54.3021C43.0551 54.3021 42.8317 54.4013 42.6503 54.5993C42.474 54.7923 42.3855 55.037 42.3855 55.3341C42.3855 55.6311 42.474 55.8767 42.6503 56.0747C42.8318 56.2669 43.0552 56.366 43.325 56.366C43.6058 56.366 43.8395 56.2669 44.021 56.0747Z" fill="#0F1223"/>
<path d="M45.1134 55.345C45.1134 54.9226 45.2382 54.5832 45.4827 54.3284C45.7265 54.0735 46.0429 53.9424 46.4223 53.9424C46.7807 53.9424 47.0659 54.0677 47.2894 54.3234C47.5129 54.5731 47.6268 54.8805 47.6268 55.2505C47.6268 55.3087 47.6268 55.3655 47.6217 55.4179H45.4978C45.5189 55.9962 45.8875 56.3662 46.4324 56.3662C46.7908 56.3662 47.0034 56.251 47.237 56.0013L47.4918 56.251C47.2168 56.5591 46.8633 56.7157 46.4324 56.7157C46.0428 56.7157 45.7213 56.5904 45.4768 56.3457C45.2329 56.1004 45.1133 55.7719 45.1133 55.3655L45.1134 55.345ZM47.2168 55.0785C47.2168 54.865 47.1384 54.6824 46.9831 54.5316C46.8272 54.3807 46.6399 54.3021 46.4223 54.3021C46.1835 54.3021 45.9754 54.3807 45.8042 54.5316C45.6329 54.6824 45.5393 54.865 45.5241 55.0785H47.2168Z" fill="#0F1223"/>
<path d="M49.8867 56.647V53.0146H51.9329V53.3904H50.2923V54.5426H51.8342V54.9168H50.2923V56.2728H51.969V56.647H49.8867Z" fill="#0F1223"/>
<path d="M54.5895 54.4114V54.0211H54.974V56.6471H54.5895V56.2568C54.4392 56.5219 54.133 56.7259 53.66 56.7259C53.2915 56.7259 52.975 56.5955 52.7204 56.3296C52.4657 56.0638 52.3359 55.7303 52.3359 55.3342C52.3359 54.9388 52.4657 54.6096 52.7204 54.3444C52.975 54.0778 53.2915 53.9424 53.66 53.9424C54.133 53.9424 54.4392 54.1464 54.5895 54.4114ZM54.3558 56.0748C54.543 55.8768 54.6366 55.6314 54.6366 55.3342C54.6366 55.037 54.543 54.7924 54.3558 54.5994C54.1744 54.4014 53.9407 54.3022 53.6599 54.3022C53.39 54.3022 53.1665 54.4014 52.9852 54.5994C52.8089 54.7924 52.7203 55.0371 52.7203 55.3342C52.7203 55.6313 52.8089 55.8768 52.9852 56.0748C53.1666 56.267 53.3901 56.3662 53.6599 56.3662C53.9408 56.3662 54.1745 56.267 54.3558 56.0748Z" fill="#0F1223"/>
<path d="M55.6837 55.9538C55.7513 56.1782 55.9849 56.3501 56.3434 56.3501C56.7736 56.3501 56.9194 56.152 56.9194 55.9495C56.9194 55.8185 56.8723 55.7194 56.7736 55.6523C56.6807 55.5839 56.5087 55.5009 56.265 55.4018C55.7876 55.214 55.5539 55.0159 55.5539 54.6358C55.5539 54.2345 55.8812 53.9424 56.3434 53.9424C56.696 53.9424 56.9507 54.0939 57.1009 54.3961L56.7896 54.5578C56.696 54.3852 56.5509 54.297 56.3485 54.297C56.1039 54.297 55.9378 54.4223 55.9378 54.6357C55.9378 54.8497 56.1148 54.959 56.5087 55.1105C57.0494 55.3187 57.3033 55.5474 57.3033 55.9494C57.3033 56.3661 56.9658 56.7097 56.3433 56.7097C55.8441 56.7097 55.4602 56.4811 55.3564 56.079L55.6837 55.9538Z" fill="#0F1223"/>
<path d="M58.5323 56.6626L57.4883 54.0205H57.8778L58.7347 56.1986L59.6381 54.0205H60.0328L58.496 57.6529H58.1115L58.5323 56.6626Z" fill="#0F1223"/>
<path d="M14.7533 50.4769L11.5557 41.8428H13.8593L16.047 48.4669L18.2505 41.8428H20.3569L17.1738 50.4769H14.7533Z" fill="#0F1223"/>
<path d="M24.801 50.6434C24.1037 50.6434 23.4746 50.5239 22.9117 50.2894C22.3471 50.0527 21.8668 49.7294 21.4699 49.3193C21.0716 48.9071 20.764 48.4352 20.5492 47.9043C20.3338 47.3721 20.2256 46.8091 20.2256 46.2177C20.2256 45.3962 20.4106 44.6432 20.7814 43.963C21.1514 43.2843 21.6811 42.7381 22.3712 42.3266C23.0619 41.9151 23.8767 41.709 24.8171 41.709C25.7668 41.709 26.5788 41.9151 27.2536 42.3266C27.9277 42.7395 28.4435 43.2828 28.8034 43.9578C29.1618 44.6337 29.3411 45.362 29.3411 46.1419C29.3411 46.273 29.336 46.4085 29.3251 46.5447C29.3142 46.6831 29.3033 46.7959 29.2924 46.8833H22.5793C22.6243 47.3166 22.7535 47.696 22.9689 48.0208C23.1837 48.3456 23.4602 48.5918 23.7969 48.76C24.135 48.9275 24.4963 49.012 24.8831 49.012C25.3256 49.012 25.7429 48.9049 26.1353 48.6878C26.5257 48.4716 26.7943 48.186 26.9386 47.8314L28.8447 48.363C28.6344 48.8072 28.3332 49.2012 27.9414 49.5449C27.5488 49.8894 27.0874 50.1566 26.557 50.3518C26.0274 50.5457 25.4411 50.6434 24.801 50.6434ZM22.5292 45.4691H27.0714C27.0256 45.0357 26.9016 44.6593 26.6984 44.3388C26.4938 44.0191 26.2254 43.7701 25.8952 43.5909C25.5636 43.4125 25.1921 43.3229 24.7836 43.3229C24.386 43.3229 24.0246 43.4126 23.6975 43.5909C23.3724 43.7701 23.1069 44.0191 22.9029 44.3388C22.6984 44.6593 22.5735 45.0357 22.5292 45.4691Z" fill="#0F1223"/>
<path d="M7.14587 50.6434C6.44783 50.6434 5.81948 50.5239 5.25651 50.2894C4.69196 50.0527 4.21166 49.7294 3.81403 49.3193C3.4164 48.9071 3.10882 48.4352 2.89392 47.9043C2.67776 47.3721 2.57031 46.8091 2.57031 46.2177C2.57031 45.3962 2.75463 44.6432 3.12611 43.963C3.49538 43.2843 4.02587 42.7381 4.71653 42.3266C5.40656 41.9151 6.22133 41.709 7.16168 41.709C8.11153 41.709 8.92345 41.9151 9.59746 42.3266C10.2722 42.7395 10.7881 43.2828 11.148 43.9578C11.5064 44.6337 11.6857 45.362 11.6857 46.1419C11.6857 46.273 11.6806 46.4085 11.669 46.5447C11.6588 46.6831 11.6479 46.7959 11.6371 46.8833H4.92394C4.96812 47.3166 5.09803 47.696 5.31356 48.0208C5.52761 48.3456 5.80483 48.5918 6.14151 48.76C6.47967 48.9275 6.84092 49.012 7.22769 49.012C7.67025 49.012 8.08675 48.9049 8.47932 48.6878C8.87041 48.4716 9.13961 48.186 9.28334 47.8314L11.1895 48.363C10.9784 48.8072 10.6779 49.2012 10.2861 49.5449C9.89291 49.8894 9.43138 50.1566 8.90173 50.3518C8.37208 50.5457 7.78581 50.6434 7.14587 50.6434ZM4.87407 45.4691H9.41546C9.37043 45.0357 9.24706 44.6593 9.04324 44.3388C8.83794 44.0191 8.57021 43.7701 8.24007 43.5909C7.90771 43.4125 7.53696 43.3229 7.12847 43.3229C6.73084 43.3229 6.36874 43.4126 6.04302 43.5909C5.71731 43.7701 5.45095 44.0191 5.24776 44.3388C5.04309 44.6593 4.91835 45.0357 4.87407 45.4691Z" fill="#0F1223"/>
<path d="M38.6069 50.4765H36.3859V45.6554C36.3859 44.968 36.264 44.464 36.0216 44.1472C35.7785 43.8311 35.4411 43.6724 35.0094 43.6724C34.7119 43.6724 34.4115 43.7482 34.1067 43.8996C33.8027 44.0511 33.5291 44.2593 33.2861 44.5252C33.043 44.7909 32.866 45.0962 32.7557 45.4435V50.4765H30.5361V41.8423H32.5395V43.4525C32.7608 43.0811 33.043 42.7651 33.3862 42.5072C33.7287 42.2494 34.1234 42.0512 34.5718 41.9151C35.018 41.7782 35.4911 41.709 35.9881 41.709C36.5302 41.709 36.9735 41.8052 37.3224 41.9975C37.6708 42.1883 37.9356 42.4475 38.1177 42.7709C38.2999 43.0943 38.4275 43.4584 38.4993 43.8648C38.5705 44.2696 38.6068 44.6811 38.6068 45.0976V50.4765H38.6069Z" fill="#0F1223"/>
<path d="M45.3784 50.043C45.1913 50.1215 44.964 50.2097 44.6978 50.3095C44.4336 50.41 44.1493 50.4902 43.8445 50.5513C43.5412 50.6118 43.2343 50.6431 42.9244 50.6431C42.5159 50.6431 42.1408 50.5709 41.7975 50.4282C41.4558 50.2855 41.1815 50.0568 40.9783 49.7443C40.773 49.4313 40.6707 49.0228 40.6707 48.5158V43.5558H39.5264V41.8423H40.6707V39.0137H42.8916V41.8423H44.7135V43.5558H42.8916V47.7592C42.9026 48.0542 42.9845 48.2684 43.1398 48.3994C43.2952 48.5312 43.4889 48.596 43.7203 48.596C43.9525 48.596 44.1789 48.5582 44.4001 48.4794C44.6207 48.4029 44.7985 48.336 44.9305 48.2806L45.3784 50.043Z" fill="#0F1223"/>
<path d="M45.7939 47.9306C45.7939 47.3727 45.9521 46.8811 46.2662 46.4602C46.5818 46.0379 47.0216 45.7116 47.5839 45.4814C48.1484 45.2506 48.7935 45.1354 49.5234 45.1354C49.8876 45.1354 50.2585 45.1639 50.6335 45.22C51.0101 45.2752 51.3352 45.3634 51.6115 45.4851V45.0219C51.6115 44.4786 51.4483 44.0584 51.1232 43.7649C50.7974 43.4707 50.3142 43.3228 49.6736 43.3228C49.1975 43.3228 48.7441 43.4058 48.3138 43.572C47.882 43.7387 47.4284 43.9827 46.9539 44.3046L46.2414 42.8408C46.8168 42.4636 47.4045 42.1803 48.0074 41.9923C48.609 41.8037 49.2409 41.709 49.9049 41.709C51.142 41.709 52.1063 42.0149 52.797 42.6288C53.4871 43.2405 53.8331 44.1151 53.8331 45.2519V47.9909C53.8331 48.2196 53.8752 48.3849 53.9572 48.4825C54.0392 48.5816 54.1756 48.6405 54.3629 48.6624V50.4765C54.1648 50.5093 53.9849 50.5376 53.8252 50.5594C53.6641 50.5821 53.5278 50.5929 53.4188 50.5929C52.9763 50.5929 52.6425 50.4932 52.4153 50.2936C52.1882 50.0934 52.0482 49.8502 51.993 49.5618L51.9429 49.1124C51.5664 49.6003 51.0976 49.9768 50.5346 50.2434C49.9708 50.5093 49.3969 50.6433 48.8106 50.6433C48.2367 50.6433 47.72 50.5238 47.2608 50.2893C46.8029 50.054 46.4431 49.7308 46.1832 49.3192C45.9231 48.9093 45.7939 48.4462 45.7939 47.9306ZM51.1981 48.3632C51.3192 48.2335 51.4187 48.1047 51.4955 47.9743C51.5724 47.8446 51.6116 47.7259 51.6116 47.6174V46.7581C51.3476 46.6497 51.0603 46.5659 50.7504 46.5062C50.4406 46.4478 50.1482 46.4165 49.8717 46.4165C49.2979 46.4165 48.8247 46.5381 48.454 46.7821C48.0846 47.0254 47.9004 47.3465 47.9004 47.7478C47.9004 47.964 47.9605 48.1693 48.0818 48.3631C48.2029 48.5583 48.38 48.7155 48.6122 48.8343C48.8436 48.9529 49.12 49.012 49.4415 49.012C49.7716 49.012 50.0982 48.9508 50.4188 48.8262C50.7395 48.7018 50.9992 48.5474 51.1981 48.3632Z" fill="#0F1223"/>
<path d="M55.6514 38.333H57.8723V47.7114C57.8723 48.1127 57.9384 48.3829 58.0712 48.5219C58.2047 48.6604 58.3868 48.7302 58.619 48.7302C58.7953 48.7302 58.9774 48.7077 59.1647 48.6625C59.3533 48.6195 59.518 48.5633 59.6631 48.4957L59.9613 50.1932C59.6631 50.3374 59.3148 50.4488 58.9166 50.5267C58.5189 50.6039 58.1604 50.6433 57.839 50.6433C57.1432 50.6433 56.6055 50.4561 56.2232 50.084C55.8431 49.7118 55.6514 49.1796 55.6514 48.4906V38.333Z" fill="#0F1223"/>
<path d="M31.3142 37.1888C29.7934 37.1888 28.4242 36.928 27.1972 36.4176C25.9673 35.9019 24.9211 35.197 24.0548 34.3041C23.1884 33.4055 22.518 32.3779 22.0499 31.2206C21.579 30.0606 21.3447 28.8342 21.3447 27.5459C21.3447 25.7559 21.7467 24.1152 22.5558 22.6332C23.3604 21.1548 24.5163 19.9649 26.0211 19.0677C27.5245 18.1712 29.3 17.7227 31.349 17.7227C33.4183 17.7227 35.1873 18.1713 36.6559 19.0677C38.1259 19.9678 39.2505 21.1512 40.0341 22.6223C40.8156 24.0948 41.206 25.6817 41.206 27.3806C41.206 27.6669 41.1951 27.9617 41.1697 28.2582C41.1471 28.5597 41.1239 28.8059 41.1 28.9959H26.4731C26.5696 29.9405 26.8526 30.767 27.3221 31.475C27.7887 32.1828 28.3923 32.7188 29.1258 33.0851C29.863 33.4499 30.6503 33.6342 31.4926 33.6342C32.457 33.6342 33.3647 33.4011 34.22 32.9285C35.0719 32.4573 35.6582 31.8346 35.9716 31.0619L40.1248 32.2205C39.6641 33.1885 39.0096 34.047 38.1564 34.7957C37.2994 35.5465 36.2938 36.1284 35.1401 36.5537C33.9857 36.976 32.7087 37.1888 31.3142 37.1888ZM26.3642 25.9146H36.2589C36.161 24.9708 35.8925 24.1501 35.4485 23.4524C35.0007 22.7555 34.4174 22.2129 33.6983 21.8226C32.9742 21.4338 32.1659 21.2385 31.2763 21.2385C30.41 21.2385 29.6205 21.4337 28.9109 21.8226C28.2013 22.2129 27.6208 22.7555 27.1782 23.4524C26.7328 24.1501 26.4607 24.9708 26.3642 25.9146Z" fill="#0F1223"/>
</svg>
